<svg xmlns="http://www.w3.org/2000/svg" width="596.214" height="249.12" viewBox="0 0 596.214 249.12">
  <g id="Group_19621" data-name="Group 19621" transform="translate(-7949.145 -530.21)">
    <path id="Path_44506" data-name="Path 44506" d="M177.612,642.274s-50-59.8-3.249-105.991c29.332-28.977,39.2-8.428,56.788-53.981,23.534-60.939,113.184-93.054,184.048-27.853,47.007,43.25,62.187,54.15,85.26,44.082,26.46-11.545,38.085-46.3,79.5-38.947,47.871,8.493,41.461,59.983,76.736,51.017,68.025-17.29,118.424,81.491,71.4,132.354Z" transform="translate(7798.222 135.848)" fill="#e9f3fe"/>
    <g id="Group_15959" data-name="Group 15959" transform="translate(8156.535 577.021)">
      <path id="Path_44507" data-name="Path 44507" d="M1363.755,631.158a100.592,100.592,0,0,1-192.566,40.72,99.589,99.589,0,0,1-5.123-14.465,100.593,100.593,0,0,1,97.114-126.833q3.837,0,7.6.285a100.719,100.719,0,0,1,77.4,46.515A100.1,100.1,0,0,1,1363.755,631.158Z" transform="translate(-1162.603 -530.58)" fill="#8fc2fd"/>
      <path id="Path_44508" data-name="Path 44508" d="M1725.791,771.776a101,101,0,0,1-1.629,18.118c-4.094-.593-9.425-1.172-12.716-.785-5.929.7-11.858,12.9-24.064,13.384s-27.2-8.85-43.246-2.572-24.413-.349-27.2-4.883,6.975-15,6.091-19.53,1.233-19.879,14.834-19.879,19.879-6.975,21.623-10.114,12.206-.7,17.787-6.626-4.185-16.392,0-23.367,24.763-8.67,24.763-8.67A100.176,100.176,0,0,1,1725.791,771.776Z" transform="translate(-1524.639 -671.199)" opacity="0.14"/>
      <path id="Path_44509" data-name="Path 44509" d="M1215.487,871.235c-4.883,6.876,1.744,21.175-2.441,28.5s-12.207,5.929-18.135,9.417c-5.148,3.027-7.211,15.518-23.721,19.9a101.067,101.067,0,0,1-6.253-62.356,30.726,30.726,0,0,1,14.28-8.114c19.879-5.231,24.826-6.436,32.751-5.151C1217.961,854.4,1220.37,864.358,1215.487,871.235Z" transform="translate(-1162.603 -787.752)" opacity="0.14"/>
      <path id="Path_44510" data-name="Path 44510" d="M1647.69,752.96s-12.207-2.441-18.833,1.744-20.054,11.684-18.31,16.043,14.474,7.673,19.7,7.5,20.577-8.021,27.029-7.5S1660.054,753.369,1647.69,752.96Z" transform="translate(-1533.128 -703.766)" opacity="0.14"/>
      <path id="Path_44511" data-name="Path 44511" d="M1305.012,1197.068c-5.336,3.892-6.608,15.853-10.021,17.509-1.713.832-4.349,3.826-6.547,6.6a100.991,100.991,0,0,1-34.8-30.73c6.037-4.19,17.358-11.267,25.212-11.46,0,0,3.925-.046,6.834-8.019a37.7,37.7,0,0,1,3.8-8.029c2.19-3.228,4.836-4.823,8.347-3.564a6.066,6.066,0,0,1,3.161,2.444c2.031,3.025,2.158,7.83,7.879,12.462C1316.6,1180.535,1310.349,1193.177,1305.012,1197.068Z" transform="translate(-1235.231 -1031.851)" opacity="0.14"/>
    </g>
    <g id="Group_15964" data-name="Group 15964" transform="translate(7983.12 732.53)">
      <g id="Group_15960" data-name="Group 15960" transform="translate(181.075)">
        <rect id="Rectangle_2244" data-name="Rectangle 2244" width="1.96" height="41.846" transform="translate(0.833 3.383)" fill="#1c468a"/>
        <path id="Path_44512" data-name="Path 44512" d="M1200.477,1301.365a1.817,1.817,0,1,1,1.813,1.926A1.872,1.872,0,0,1,1200.477,1301.365Z" transform="translate(-1200.477 -1299.44)" fill="#1c468a"/>
        <rect id="Rectangle_2245" data-name="Rectangle 2245" width="3.528" height="0.989" transform="translate(0 44.656)" fill="#1c468a"/>
        <rect id="Rectangle_2246" data-name="Rectangle 2246" width="2.964" height="0.801" transform="translate(0.344 3.051)" fill="#1c468a"/>
      </g>
      <path id="Path_44513" data-name="Path 44513" d="M417.1,1338.407c-11.174,0-23.151-.293-35.921-.971-32.76-1.739-55.487-5.246-55.712-5.281l.335-2.423c.225.035,22.865,3.527,55.521,5.26,30.124,1.6,75.174,1.983,118.727-5.258l.357,2.42C481.88,1335.233,453.86,1338.407,417.1,1338.407Z" transform="translate(-321.367 -1323.605)" fill="#9ca6ba"/>
      <path id="Path_44514" data-name="Path 44514" d="M1313.129,1338.407c-11.174,0-23.151-.293-35.922-.971-32.76-1.739-55.487-5.246-55.712-5.281l.335-2.423c.225.035,22.865,3.527,55.521,5.26,30.124,1.6,75.174,1.983,118.727-5.258l.357,2.42C1377.913,1335.233,1349.893,1338.407,1313.129,1338.407Z" transform="translate(-1036.169 -1323.605)" fill="#9ca6ba"/>
      <path id="Path_44515" data-name="Path 44515" d="M2208.657,1338.407c-11.175,0-23.151-.293-35.921-.971-32.76-1.739-55.487-5.246-55.712-5.281l.335-2.423c.225.035,22.865,3.527,55.521,5.26,30.124,1.6,75.174,1.983,118.728-5.258l.356,2.42C2273.442,1335.233,2245.422,1338.407,2208.657,1338.407Z" transform="translate(-1750.568 -1323.605)" fill="#9ca6ba"/>
      <g id="Group_15961" data-name="Group 15961">
        <rect id="Rectangle_2247" data-name="Rectangle 2247" width="1.96" height="41.846" transform="translate(0.833 3.383)" fill="#1c468a"/>
        <path id="Path_44516" data-name="Path 44516" d="M305.214,1301.365a1.817,1.817,0,1,1,1.813,1.926A1.872,1.872,0,0,1,305.214,1301.365Z" transform="translate(-305.214 -1299.44)" fill="#1c468a"/>
        <rect id="Rectangle_2248" data-name="Rectangle 2248" width="3.529" height="0.989" transform="translate(0 44.656)" fill="#1c468a"/>
        <rect id="Rectangle_2249" data-name="Rectangle 2249" width="2.964" height="0.801" transform="translate(0.344 3.051)" fill="#1c468a"/>
      </g>
      <path id="Path_44517" data-name="Path 44517" d="M328.568,1328.936l-.466,2.889-4.148-.72.515-2.812Z" transform="translate(-320.164 -1322.456)" fill="#1c468a"/>
      <path id="Path_44518" data-name="Path 44518" d="M320.421,1329.649a1.11,1.11,0,0,0-.61-.44.051.051,0,0,0-.028-.008h-.007c-.026-.005-.046-.013-.069-.015l-1.212-.2-.714-.117a1.033,1.033,0,0,0-.755.168.494.494,0,0,0-.061.046,1.154,1.154,0,0,0-.432.757,1.183,1.183,0,0,0,.493,1.156,1.047,1.047,0,0,0,.422.17l.63.1.272.043,1.024.165a.956.956,0,0,0,.168.018,1.122,1.122,0,0,0,1.08-.988A1.213,1.213,0,0,0,320.421,1329.649Zm-.053.82a.845.845,0,0,1-.953.744l-1.026-.17-.262-.043-.64-.1a.833.833,0,0,1-.46-.249.914.914,0,0,1-.241-.765.9.9,0,0,1,.241-.5.961.961,0,0,1,.092-.084.792.792,0,0,1,.62-.163l.706.114h0l.183.033,1.039.168a.806.806,0,0,1,.546.353A.923.923,0,0,1,320.368,1330.469Z" transform="translate(-314.234 -1322.91)" fill="#1c468a"/>
      <path id="Path_44519" data-name="Path 44519" d="M1177.593,1330.778l-.36-2.906,4.163-.615.291,2.849Z" transform="translate(-1000.859 -1321.631)" fill="#1c468a"/>
      <path id="Path_44520" data-name="Path 44520" d="M1191.028,1329.127a1.14,1.14,0,0,0-.529-.831,1.016,1.016,0,0,0-.711-.147l-.63.1-1.3.2c-.056.01-.111.025-.165.041a1.081,1.081,0,0,0-.386.229,1.193,1.193,0,0,0-.371,1.052,1.168,1.168,0,0,0,.434.762.746.746,0,0,0,.224.135l0,0a1.011,1.011,0,0,0,.582.079l1.214-.193.714-.112a1.028,1.028,0,0,0,.391-.145,1.091,1.091,0,0,0,.328-.312A1.2,1.2,0,0,0,1191.028,1329.127Zm-.407.7a.915.915,0,0,1-.122.137.787.787,0,0,1-.427.213l-.706.111-1.222.2a.787.787,0,0,1-.6-.155c-.008-.005-.015-.007-.02-.016a.883.883,0,0,1-.333-.582.913.913,0,0,1,.168-.671v0a.822.822,0,0,1,.538-.335l1.288-.206.64-.1a.783.783,0,0,1,.673.216.878.878,0,0,1,.277.533A.93.93,0,0,1,1190.622,1329.825Z" transform="translate(-1008.591 -1322.332)" fill="#1c468a"/>
      <g id="Group_15962" data-name="Group 15962" transform="translate(362.306)">
        <rect id="Rectangle_2250" data-name="Rectangle 2250" width="1.96" height="41.846" transform="translate(0.833 3.383)" fill="#1c468a"/>
        <path id="Path_44521" data-name="Path 44521" d="M2096.51,1301.365a1.817,1.817,0,1,1,1.813,1.926A1.872,1.872,0,0,1,2096.51,1301.365Z" transform="translate(-2096.51 -1299.44)" fill="#1c468a"/>
        <rect id="Rectangle_2251" data-name="Rectangle 2251" width="3.528" height="0.989" transform="translate(0 44.656)" fill="#1c468a"/>
        <rect id="Rectangle_2252" data-name="Rectangle 2252" width="2.964" height="0.801" transform="translate(0.344 3.051)" fill="#1c468a"/>
      </g>
      <path id="Path_44522" data-name="Path 44522" d="M1224.6,1328.936l-.466,2.889-4.148-.72.516-2.812Z" transform="translate(-1034.966 -1322.456)" fill="#1c468a"/>
      <path id="Path_44523" data-name="Path 44523" d="M1216.454,1329.649a1.109,1.109,0,0,0-.61-.44.051.051,0,0,0-.028-.008h-.008c-.025-.005-.046-.013-.068-.015l-1.212-.2-.714-.117a1.032,1.032,0,0,0-.754.168.474.474,0,0,0-.061.046,1.154,1.154,0,0,0-.432.757,1.183,1.183,0,0,0,.493,1.156,1.045,1.045,0,0,0,.422.17l.63.1.272.043,1.024.165a.955.955,0,0,0,.167.018,1.121,1.121,0,0,0,1.08-.988A1.214,1.214,0,0,0,1216.454,1329.649Zm-.053.82a.845.845,0,0,1-.953.744l-1.026-.17-.262-.043-.64-.1a.832.832,0,0,1-.46-.249.913.913,0,0,1-.242-.765.9.9,0,0,1,.242-.5.963.963,0,0,1,.091-.084.791.791,0,0,1,.62-.163l.707.114h0l.183.033,1.039.168a.8.8,0,0,1,.546.353A.922.922,0,0,1,1216.4,1330.469Z" transform="translate(-1029.036 -1322.91)" fill="#1c468a"/>
      <path id="Path_44524" data-name="Path 44524" d="M2073.626,1330.778l-.36-2.906,4.163-.615.291,2.849Z" transform="translate(-1715.661 -1321.631)" fill="#1c468a"/>
      <path id="Path_44525" data-name="Path 44525" d="M2087.061,1329.127a1.139,1.139,0,0,0-.528-.831,1.015,1.015,0,0,0-.711-.147l-.63.1-1.3.2a1.629,1.629,0,0,0-.165.041,1.076,1.076,0,0,0-.386.229,1.193,1.193,0,0,0-.371,1.052,1.167,1.167,0,0,0,.435.762.744.744,0,0,0,.223.135l0,0a1.01,1.01,0,0,0,.582.079l1.214-.193.714-.112a1.026,1.026,0,0,0,.391-.145,1.1,1.1,0,0,0,.328-.312A1.2,1.2,0,0,0,2087.061,1329.127Zm-.406.7a.923.923,0,0,1-.122.137.787.787,0,0,1-.427.213l-.706.111-1.222.2a.786.786,0,0,1-.6-.155c-.008-.005-.015-.007-.02-.016a.886.886,0,0,1-.333-.582.914.914,0,0,1,.168-.671v0a.822.822,0,0,1,.539-.335l1.288-.206.64-.1a.783.783,0,0,1,.673.216.878.878,0,0,1,.277.533A.931.931,0,0,1,2086.655,1329.825Z" transform="translate(-1723.393 -1322.332)" fill="#1c468a"/>
      <g id="Group_15963" data-name="Group 15963" transform="translate(543.435)">
        <rect id="Rectangle_2253" data-name="Rectangle 2253" width="1.96" height="41.846" transform="translate(0.833 3.383)" fill="#1c468a"/>
        <path id="Path_44526" data-name="Path 44526" d="M2992.039,1301.365a1.817,1.817,0,1,1,1.813,1.926A1.872,1.872,0,0,1,2992.039,1301.365Z" transform="translate(-2992.039 -1299.44)" fill="#1c468a"/>
        <rect id="Rectangle_2254" data-name="Rectangle 2254" width="3.528" height="0.989" transform="translate(0 44.656)" fill="#1c468a"/>
        <rect id="Rectangle_2255" data-name="Rectangle 2255" width="2.964" height="0.801" transform="translate(0.344 3.051)" fill="#1c468a"/>
      </g>
      <path id="Path_44527" data-name="Path 44527" d="M2120.13,1328.936l-.466,2.889-4.148-.72.515-2.812Z" transform="translate(-1749.366 -1322.456)" fill="#1c468a"/>
      <path id="Path_44528" data-name="Path 44528" d="M2111.983,1329.649a1.11,1.11,0,0,0-.61-.44.051.051,0,0,0-.028-.008h-.008c-.026-.005-.046-.013-.069-.015l-1.211-.2-.714-.117a1.033,1.033,0,0,0-.755.168.5.5,0,0,0-.061.046,1.153,1.153,0,0,0-.432.757,1.183,1.183,0,0,0,.493,1.156,1.047,1.047,0,0,0,.422.17l.63.1.272.043,1.024.165a.957.957,0,0,0,.168.018,1.122,1.122,0,0,0,1.079-.988A1.215,1.215,0,0,0,2111.983,1329.649Zm-.053.82a.845.845,0,0,1-.953.744l-1.027-.17-.261-.043-.64-.1a.834.834,0,0,1-.46-.249.913.913,0,0,1-.241-.765.893.893,0,0,1,.241-.5.95.95,0,0,1,.092-.084.792.792,0,0,1,.62-.163l.706.114h0l.183.033,1.039.168a.805.805,0,0,1,.546.353A.922.922,0,0,1,2111.93,1330.469Z" transform="translate(-1743.436 -1322.91)" fill="#1c468a"/>
      <path id="Path_44529" data-name="Path 44529" d="M2969.156,1330.778l-.36-2.906,4.163-.615.291,2.849Z" transform="translate(-2430.062 -1321.631)" fill="#1c468a"/>
      <path id="Path_44530" data-name="Path 44530" d="M2982.59,1329.127a1.139,1.139,0,0,0-.528-.831,1.015,1.015,0,0,0-.711-.147l-.63.1-1.3.2a1.684,1.684,0,0,0-.165.041,1.083,1.083,0,0,0-.386.229,1.2,1.2,0,0,0-.371,1.052,1.168,1.168,0,0,0,.435.762.743.743,0,0,0,.223.135l0,0a1.011,1.011,0,0,0,.582.079l1.214-.193.714-.112a1.027,1.027,0,0,0,.391-.145,1.1,1.1,0,0,0,.328-.312A1.2,1.2,0,0,0,2982.59,1329.127Zm-.406.7a.938.938,0,0,1-.122.137.788.788,0,0,1-.427.213l-.706.111-1.222.2a.787.787,0,0,1-.6-.155c-.007-.005-.015-.007-.02-.016a.881.881,0,0,1-.333-.582.913.913,0,0,1,.168-.671v0a.822.822,0,0,1,.539-.335l1.288-.206.641-.1a.783.783,0,0,1,.673.216.876.876,0,0,1,.277.533A.93.93,0,0,1,2982.184,1329.825Z" transform="translate(-2437.793 -1322.332)" fill="#1c468a"/>
    </g>
    <g id="Group_15965" data-name="Group 15965" transform="translate(8056.301 570.995)">
      <path id="Path_44531" data-name="Path 44531" d="M1001.562,678.479a44.457,44.457,0,0,0-25.98-2.455s16.751-1.144,26.684,9.488c0,0,6.946-10.652,18.429-13.095C1020.695,672.417,1012.138,671.4,1001.562,678.479Z" transform="translate(-913.175 -637.662)" fill="#fcbf02"/>
      <path id="Path_44532" data-name="Path 44532" d="M866.889,658.893a34.384,34.384,0,0,0-20.082-2.016s12.961-.809,20.595,7.458c0,0,5.42-8.207,14.312-10.044C881.714,654.291,875.1,653.463,866.889,658.893Z" transform="translate(-810.446 -623.207)" fill="#fcbf02"/>
      <path id="Path_44533" data-name="Path 44533" d="M734.326,639.191a31.3,31.3,0,0,0-18.344-1.06S727.74,636.9,735,644.122c0,0,4.614-7.674,12.631-9.687C747.633,634.434,741.586,633.936,734.326,639.191Z" transform="translate(-706.082 -607.392)" fill="#fcbf02"/>
      <path id="Path_44534" data-name="Path 44534" d="M679.471,601.721a21.2,21.2,0,0,0-12.437.442s7.851-1.575,13.2,2.84c0,0,2.628-5.466,7.907-7.329C688.144,597.674,684.035,597.72,679.471,601.721Z" transform="translate(-667.034 -578.077)" fill="#fcbf02"/>
      <path id="Path_44535" data-name="Path 44535" d="M959.239,504.375a21.2,21.2,0,0,0-12.443-.207s7.922-1.163,13.038,3.525c0,0,2.909-5.321,8.278-6.907C968.112,500.785,964.006,500.617,959.239,504.375Z" transform="translate(-890.212 -500.784)" fill="#fcbf02"/>
      <path id="Path_44536" data-name="Path 44536" d="M1073.5,598.221a30.887,30.887,0,0,0-18.014-2.051s11.651-.572,18.409,6.945c0,0,4.967-7.307,12.975-8.851C1086.872,594.265,1080.942,593.443,1073.5,598.221Z" transform="translate(-976.919 -575.314)" fill="#fcbf02"/>
      <path id="Path_44537" data-name="Path 44537" d="M1024.859,537.35a28.558,28.558,0,0,0-16.714-1.266s10.744-.935,17.25,5.774c0,0,4.334-6.924,11.679-8.63C1037.074,533.229,1031.567,532.677,1024.859,537.35Z" transform="translate(-939.152 -526.651)" fill="#fcbf02"/>
    </g>
    <g id="Group_15966" data-name="Group 15966" transform="translate(8295.267 575.579)">
      <path id="Path_44538" data-name="Path 44538" d="M1866.189,523.451c-9.761,0-17.674,8.51-17.674,19.005s17.674,27.272,17.674,27.272,17.673-16.776,17.673-27.272S1875.951,523.451,1866.189,523.451Zm0,28.3a10.414,10.414,0,1,1,10.414-10.414A10.4,10.4,0,0,1,1866.189,551.756Z" transform="translate(-1848.516 -523.451)" fill="#00438f"/>
    </g>
    <g id="man" transform="translate(8211.844 631.945)">
      <path id="Path_44564" data-name="Path 44564" d="M914.21,901.127a38.832,38.832,0,0,0-13.954-3.624,9.642,9.642,0,0,0-9.862,6.593q-.12.363-.229.754c-1.93,6.944-.877,27.963,5.616,33.447s18.428,3.17,18.428,3.17Z" transform="translate(-889.299 -878.193)" fill="#005dc7"/>
      <path id="Path_44565" data-name="Path 44565" d="M1024.233,1152.984s-.7,8.689-1.515,19.134c-1.113,14.188-5.347,49.541-5.347,49.541s.9,1.409-3.46.491a89.559,89.559,0,0,1-6.449-25.893c-.017-.227-.034-.456-.052-.684-1.032-14.1-2.636-43.792-2.636-43.792Z" transform="translate(-981.418 -1081.061)" fill="#2b478b"/>
      <path id="Path_44566" data-name="Path 44566" d="M1024.47,1142.887s-.934,11.691-1.753,22.136l-15.256,24.139c-.017-.227-.034-.456-.052-.684-1.032-14.1-2.636-43.792-2.636-43.792Z" transform="translate(-981.418 -1073.966)" fill="#233862"/>
      <path id="Path_44567" data-name="Path 44567" d="M968.474,1123.541l-26.222,75.447s-2.742-.516-3.357-1.729c0,0-.754-31.907,3.688-39.6,2.51-4.35,3.788-16.543,3.963-20.67.518-12.267,1.82-15.59,1.82-15.59Z" transform="translate(-928.824 -1056.82)" fill="#2b478b"/>
      <g id="Group_15972" data-name="Group 15972" transform="translate(30.132 139.038)">
        <path id="Path_44568" data-name="Path 44568" d="M1040.013,1497.3h2.135c.715-.113,1.243-.32,1.976-.415a1.979,1.979,0,0,1,1.729.415l.02.021h9.069c.228-.326.009-1.08-.205-1.636a1.291,1.291,0,0,0-.849-.776,9.778,9.778,0,0,1-4.594-2.1c-.977-.883-4.717-3.246-4.717-3.246l-.02,0c-.082,0-.473.122-2.174,1.558-.88.741-2.378-1.047-2.378-1.047a2.128,2.128,0,0,0-.492.666,2.253,2.253,0,0,0-.195,1.392,9.023,9.023,0,0,1-.65,3.363c-.211.623-.389,1.064-.389,1.064S1038.176,1497.066,1040.013,1497.3Z" transform="translate(-1038.277 -1489.556)" fill="#233862"/>
        <path id="Path_44569" data-name="Path 44569" d="M1040.017,1520.726h2.126c.715-.113,1.248-.35,1.982-.446a1.98,1.98,0,0,1,1.729.415l.02.022h9.069c.229-.326.009-1.08-.205-1.636-.276-.245-.353,1.064-.505,1.272s-7.4.076-7.817-.228a4.375,4.375,0,0,0-3.424-.418c-1.523.364-3.767-.569-4.323-.817-.211.622-.389,1.064-.389,1.064S1038.18,1520.5,1040.017,1520.726Z" transform="translate(-1038.277 -1512.956)" fill="#233862"/>
      </g>
      <g id="Group_15973" data-name="Group 15973" transform="translate(8.332 139.038)">
        <path id="Path_44570" data-name="Path 44570" d="M932.231,1497.3h2.135c.715-.113,1.243-.32,1.977-.415a1.979,1.979,0,0,1,1.729.415l.02.021h9.069c.228-.326.009-1.08-.205-1.636a1.291,1.291,0,0,0-.849-.776,9.778,9.778,0,0,1-4.594-2.1c-.977-.883-4.717-3.246-4.717-3.246l-.02,0c-.082,0-.473.122-2.174,1.558-.88.741-2.378-1.047-2.378-1.047a2.129,2.129,0,0,0-.492.666,2.254,2.254,0,0,0-.195,1.392,9.028,9.028,0,0,1-.65,3.363c-.211.623-.39,1.064-.39,1.064S930.394,1497.066,932.231,1497.3Z" transform="translate(-930.495 -1489.556)" fill="#233862"/>
        <path id="Path_44571" data-name="Path 44571" d="M932.235,1520.726h2.126c.715-.113,1.248-.35,1.982-.446a1.98,1.98,0,0,1,1.729.415l.02.022h9.069c.228-.326.009-1.08-.205-1.636-.276-.245-.353,1.064-.505,1.272s-7.4.076-7.817-.228a4.374,4.374,0,0,0-3.424-.418c-1.523.364-3.768-.569-4.323-.817-.212.622-.39,1.064-.39,1.064S930.4,1520.5,932.235,1520.726Z" transform="translate(-930.495 -1512.956)" fill="#233862"/>
      </g>
      <path id="Path_44572" data-name="Path 44572" d="M1005.65,868.266s8.5,4.182,13.409,2.632a11.779,11.779,0,0,0-3.316-2.7c.12-.715.217-1.368.292-1.95a30.551,30.551,0,0,0,.282-3.3l-5.208-4.2-1.168-.941a14.841,14.841,0,0,1-.159,2.77c-.01.067-.02.134-.031.2A12.3,12.3,0,0,1,1005.65,868.266Z" transform="translate(-982.117 -846.542)" fill="#ff8b7b"/>
      <path id="Path_44573" data-name="Path 44573" d="M981.671,946.292c-.025.541,1.09,1.136,1.574,1.353a41.268,41.268,0,0,0,6.325,2.315,27.963,27.963,0,0,0,4.553.825c4.55.467,9.927-.558,11.772-.533a.8.8,0,0,0,.516-.2c.123-.1.221-5.657.123-12.666,0-.27,0-.566-.024-.836v-.1c-.025-2.73-.124-5.607-.247-8.46-.27-6.3-.761-12.371-1.6-15.74-.983-3.958-4.7-8.916-7.174-10.274-2.091-1.149-8.963-2.352-9.307-2.106-4.033,3.013-6.256,11.927-6.218,22.048,0,.319,0,.641.008.962.018,1.045.056,2.1.116,3.165a135.608,135.608,0,0,1-.269,17.706C981.747,944.841,981.688,945.7,981.671,946.292Z" transform="translate(-962.988 -880.081)" fill="#fcbf02"/>
      <path id="Path_44574" data-name="Path 44574" d="M1025.719,864.407l.042.077c.329.589,2.574,4.385,6.283,5.473a30.557,30.557,0,0,0,.283-3.3l-5.208-4.2a14.643,14.643,0,0,0-1.328,1.828Z" transform="translate(-998.127 -850.255)" opacity="0.15"/>
      <path id="Path_44575" data-name="Path 44575" d="M1027.549,829.7s-8.112,1.348-8.873-3.717-2.321-8.3,2.826-9.376,6.446.706,7.111,2.335S1029.64,829.22,1027.549,829.7Z" transform="translate(-991.846 -813.42)" fill="#ff8b7b"/>
      <path id="Path_44576" data-name="Path 44576" d="M1007.321,813.392s-1.077-1.088-.457-1.774.979.359,1.469.326,1.371-1.469,1.436-2.774,4.776.687,6.669.067,3.553-3.151.593-4.515c-1.739-.8-10.433-4.93-13.733-.741-4.206,5.339,1.411,10.934,2.162,11.783s1.18.6,1.18.6S1007.965,814.569,1007.321,813.392Z" transform="translate(-979.007 -802.133)" fill="#263238"/>
      <path id="Path_44577" data-name="Path 44577" d="M1008.528,805.581a5.592,5.592,0,0,1,.457-2.056,7.553,7.553,0,0,0,.13,1.61C1009.268,805.679,1008.528,805.581,1008.528,805.581Z" transform="translate(-984.413 -803.243)" fill="#2c3a64"/>
      <path id="Path_44578" data-name="Path 44578" d="M1004.283,809.393s1.023.11,1.087.915l-.371.478A1.506,1.506,0,0,0,1004.283,809.393Z" transform="translate(-981.026 -807.925)" fill="#2c3a64"/>
      <g id="Group_15974" data-name="Group 15974" transform="translate(18.239 21.054)">
        <path id="Path_44579" data-name="Path 44579" d="M980.044,932.541l-.251-1.547a13.737,13.737,0,0,0,9.042-5.37,17.5,17.5,0,0,0,3.266-8.012c.746-5.546-.714-8.7-4.463-9.652-3.358-.85-7.238,1.774-7.277,1.8l-.888-1.291c.182-.125,4.5-3.054,8.549-2.029,3.16.8,6.7,3.422,5.631,11.38a18.923,18.923,0,0,1-3.571,8.75A15.256,15.256,0,0,1,980.044,932.541Z" transform="translate(-979.474 -906.225)" fill="#005dc7"/>
      </g>
      <path id="Path_44580" data-name="Path 44580" d="M1055.453,1076.289s1.072-.545,1.656-.807,1.724-.965,1.812-.468.555,1.461-.526,1.636A8.966,8.966,0,0,1,1055.453,1076.289Z" transform="translate(-1021.847 -1019.683)" fill="#ffb27d"/>
      <g id="Group_15975" data-name="Group 15975" transform="translate(34.769 50.791)">
        <path id="Rectangle_2256" data-name="Rectangle 2256" d="M.945,0H1.23a.945.945,0,0,1,.945.945v0a.945.945,0,0,1-.945.945H.945A.945.945,0,0,1,0,.945v0A.945.945,0,0,1,.945,0Z" transform="translate(6.559 2.431) rotate(-163.455)" fill="#415da5"/>
        <path id="Path_44581" data-name="Path 44581" d="M1063.875,1057.842l-2.624,8.836a1.138,1.138,0,0,0,.765,1.411l3.353,1a1.138,1.138,0,0,0,1.411-.765l2.624-8.837a1.138,1.138,0,0,0-.765-1.41l-3.353-1A1.138,1.138,0,0,0,1063.875,1057.842Z" transform="translate(-1061.204 -1056.266)" fill="#cadeff"/>
        <path id="Path_44582" data-name="Path 44582" d="M1063.769,1062.811l-2.518,8.478a1.138,1.138,0,0,0,.765,1.411l3.353,1a1.138,1.138,0,0,0,1.411-.765l2.466-8.3a7.438,7.438,0,0,0-2.454-.453C1065.992,1064.23,1064.487,1063.295,1063.769,1062.811Z" transform="translate(-1061.204 -1060.877)" fill="#86b1fc"/>
        <rect id="Rectangle_2257" data-name="Rectangle 2257" width="5.77" height="5.78" transform="translate(6.212 9.908) rotate(-163.46)" fill="#415da5"/>
      </g>
      <path id="Path_44583" data-name="Path 44583" d="M976.277,982.891c-1.505-.376-2.86.546-4.955.214,0,0-10.376-7.278-12.2-9.1-1.316-1.316,3.965-7.251,6.716-11.861a1.159,1.159,0,0,1-.418-.147c-2.1-1.247-6.328-3.509-9.817-3.867a1.135,1.135,0,0,1-.37-.1,58.039,58.039,0,0,0-5.233,17.389,2.453,2.453,0,0,0,.839,2.123c2.558,2.211,9.573,6.127,18.006,8.554a11.763,11.763,0,0,0,3.681,1.605c1.808.338,2.555-.665,5.18.845,1.21.7,1.591-.786,1.442-1.554C978.952,985.955,977.955,983.311,976.277,982.891Z" transform="translate(-937.716 -926.498)" fill="#ff8b7b"/>
      <path id="Path_44584" data-name="Path 44584" d="M974.894,916.167a28.873,28.873,0,0,0-6.318,10.117s4.024,3.507,11.558,4.208c0,0,3.092-5.689.832-8.572A38.843,38.843,0,0,0,974.894,916.167Z" transform="translate(-952.542 -893.102)" fill="#fcbf02"/>
    </g>
    <g id="Group_15984" data-name="Group 15984" transform="translate(8081.693 637.052)">
      <g id="Group_15977" data-name="Group 15977" transform="translate(64.933 40.932)">
        <path id="Path_44585" data-name="Path 44585" d="M692.033,1029.753s-.232,11,.307,14.208-.707,18.137-.707,18.137l-2.575-.323s-6.447-24.383-5.788-27.513S692.033,1029.753,692.033,1029.753Z" transform="translate(-683.223 -1029.753)" fill="#aa6550"/>
        <g id="Group_15976" data-name="Group 15976" transform="translate(5.569 32.022)">
          <path id="Path_44586" data-name="Path 44586" d="M713.6,1188.4s.994,3.339.757,3.977a9.838,9.838,0,0,1-2.548,2.782c-1.044.811-.124-2.137.074-3.093s-1.339-1.025-1.1-2.508l.241-1.483Z" transform="translate(-710.758 -1188.075)" fill="#aa6550"/>
          <path id="Path_44587" data-name="Path 44587" d="M710.791,1195.4s.006,2.763-.023,3.309.544.049.624-.432a2.375,2.375,0,0,1,.818-1.35C712.453,1196.864,710.791,1195.4,710.791,1195.4Z" transform="translate(-710.765 -1193.922)" fill="#aa6550"/>
        </g>
      </g>
      <path id="Path_44588" data-name="Path 44588" d="M631.9,1188.359c.926,9.323,4.274,23.649,4.274,23.649l2.6-1.875s4.58-32.147,5.328-34.761a168.613,168.613,0,0,0,5.788-36.017l-15.2-4.486a20.759,20.759,0,0,0-2.386,11.74C633.9,1167.762,630.795,1177.191,631.9,1188.359Z" transform="translate(-577.156 -1072.677)" fill="#263238"/>
      <path id="Path_44589" data-name="Path 44589" d="M549.946,1190.8a3.97,3.97,0,0,1-.841,2.045c-.179.228-.7.831-.9.617s.545-1.834.107-2.829C548.16,1190.279,549.946,1190.8,549.946,1190.8Z" transform="translate(-510.558 -1117.065)" fill="#ffb27d"/>
      <path id="Path_44590" data-name="Path 44590" d="M656.561,1501.332a1.042,1.042,0,0,0-.686-.627,7.9,7.9,0,0,1-3.711-1.7c-.789-.713-3.811-2.622-3.811-2.622l-.016,0c-.066,0-.382.1-1.757,1.259-.711.6-1.921-.846-1.921-.846a1.722,1.722,0,0,0-.4.538,1.82,1.82,0,0,0-.157,1.125,7.3,7.3,0,0,1-.525,2.717c-.171.5-.315.859-.315.859s-.083.414,1.4.6h1.725c.578-.091,1-.258,1.6-.336a1.6,1.6,0,0,1,1.4.336l.016.017h7.327C656.911,1502.391,656.734,1501.781,656.561,1501.332Z" transform="translate(-586.413 -1361.072)" fill="#37598c"/>
      <path id="Path_44591" data-name="Path 44591" d="M589.749,1184.912c.926,9.323,4.073,23.955,4.073,23.955l2.3.741s5.084-35.07,5.831-37.684c5.2-18.168,6-39.738,6-39.738l-15.413-.764a20.76,20.76,0,0,0-2.386,11.74C591.75,1164.315,588.64,1173.744,589.749,1184.912Z" transform="translate(-543.527 -1069.927)" fill="#455a64"/>
      <path id="Path_44592" data-name="Path 44592" d="M613.616,1501.332a1.042,1.042,0,0,0-.686-.627,7.9,7.9,0,0,1-3.711-1.7c-.789-.713-3.811-2.622-3.811-2.622l-.016,0c-.066,0-.382.1-1.757,1.259-.711.6-1.859-.883-1.859-.883a1.775,1.775,0,0,0-.617,1.7,7.294,7.294,0,0,1-.525,2.717c-.171.5-.315.859-.315.859s-.082.414,1.4.6h1.725c.578-.091,1-.258,1.6-.336a1.6,1.6,0,0,1,1.4.336l.016.017h7.327C613.966,1502.391,613.789,1501.781,613.616,1501.332Z" transform="translate(-552.154 -1361.072)" fill="#466aa5"/>
      <g id="Group_15983" data-name="Group 15983" transform="translate(0 74.777)">
        <path id="Path_44593" data-name="Path 44593" d="M396.863,1503.075a2.591,2.591,0,0,1-1.418,3.437,2.725,2.725,0,0,1-3.538-1.377,2.591,2.591,0,0,1,1.418-3.437A2.725,2.725,0,0,1,396.863,1503.075Z" transform="translate(-385.722 -1439.919)" fill="#1c468a"/>
        <path id="Path_44594" data-name="Path 44594" d="M492.452,1503.062a2.591,2.591,0,0,1-1.417,3.437,2.726,2.726,0,0,1-3.538-1.377,2.591,2.591,0,0,1,1.418-3.437A2.725,2.725,0,0,1,492.452,1503.062Z" transform="translate(-461.977 -1439.909)" fill="#1c468a"/>
        <path id="Path_44595" data-name="Path 44595" d="M389.712,1497.859l3.833,1.337a3.559,3.559,0,0,0,1.209.2l21.747-.216,2.374-3.824Z" transform="translate(-384.145 -1435.027)" fill="#739af0"/>
        <g id="Group_15978" data-name="Group 15978" transform="translate(17.049)">
          <path id="Path_44596" data-name="Path 44596" d="M447.347,1217.686l6.075-14.669.008-.028c.037-.131.983-3.282,6.457-3.986l.025,0,4.5-.824c.582-.149,2.262-.4,3.032.232a1.438,1.438,0,0,1,.423,1.34c-.113,1.23-4.156,10.742-6.845,16.835l.861.359c.691-1.565,6.755-15.343,6.918-17.113a2.293,2.293,0,0,0-.753-2.118c-1.258-1.029-3.608-.481-3.858-.419l-4.44.812c-5.894.763-7.1,4.227-7.219,4.625l-6.054,14.62Z" transform="translate(-446.477 -1197.089)" fill="#263238"/>
        </g>
        <path id="Path_44597" data-name="Path 44597" d="M498.77,1277.45l11.736,2.279s3.422,1.352,2.743,7.177c-.6,5.126-3.216,33.888-3.216,33.888s-.547,5.985-13.706,4.249Z" transform="translate(-469.196 -1261.196)" fill="#2a83e8"/>
        <path id="Path_44598" data-name="Path 44598" d="M398.267,1285.135l-3.156,32.211a7.13,7.13,0,0,1-1.335,3.5,7.554,7.554,0,0,1-6.077,3.084l-10.884.066-.269,0-6.817.041a7.722,7.722,0,0,1-1.975-.242c-.147-.037-.292-.079-.435-.125a7.407,7.407,0,0,1-4.848-4.921,7.046,7.046,0,0,1-.193-3.11l4.943-30.819a7.407,7.407,0,0,1,6.691-6.125l1.923-.179.458-.042h0l.385-.035,6.427-.6.789-.073,6.2-.575a7.708,7.708,0,0,1,2.791.249c.057.016.115.033.172.051l.358.119A7.273,7.273,0,0,1,398.267,1285.135Z" transform="translate(-362.187 -1260.969)" fill="#b3caff"/>
        <path id="Path_44599" data-name="Path 44599" d="M393.826,1478.506a7.555,7.555,0,0,1-6.077,3.084l-10.884.066-.269,0-6.817.041a7.728,7.728,0,0,1-1.975-.242c-.147-.037-.292-.079-.435-.125-2.36-.76-5.08-3.535-5.119-6.479,0,0,23.025-.293,27.837.429A4.581,4.581,0,0,1,393.826,1478.506Z" transform="translate(-362.237 -1418.625)" fill="#2a83e8"/>
        <g id="Group_15982" data-name="Group 15982" transform="translate(3.016 16.479)">
          <g id="Group_15979" data-name="Group 15979" transform="translate(0 0.996)">
            <path id="Path_44600" data-name="Path 44600" d="M388.574,1283.488c-.048.029-5.1,3.017-5.76,5.642-.682,2.7-5.24,34.148-5.285,34.466a7.179,7.179,0,0,0,2.466,5.329l-.346-.081c-.147-.037-.292-.079-.435-.125a6.428,6.428,0,0,1-2.092-5.177c.188-1.3,4.607-31.789,5.293-34.506.6-2.381,4.161-4.754,5.314-5.47l.458-.042h0Z" transform="translate(-377.098 -1283.488)" fill="#263238"/>
          </g>
          <g id="Group_15980" data-name="Group 15980" transform="translate(10.625 0.326)">
            <path id="Path_44601" data-name="Path 44601" d="M437.7,1280.176a9.545,9.545,0,0,0-4.09,6.3c-.694,4.432-3.4,36.619-3.43,36.943l0,.024-.007.021a3.5,3.5,0,0,0,.723,2.934l-.273,0-.269,0a3.363,3.363,0,0,1-.579-3.037c.084-1,2.744-32.552,3.433-36.948a9.888,9.888,0,0,1,3.707-6.17Z" transform="translate(-429.631 -1280.176)" fill="#263238"/>
          </g>
          <g id="Group_15981" data-name="Group 15981" transform="translate(20.709)">
            <path id="Path_44602" data-name="Path 44602" d="M486.991,1278.733a8.494,8.494,0,0,0-1.973,1.584,8.982,8.982,0,0,0-2.224,4.694c-.694,4.429-2.842,36.51-2.864,36.832v.025l-.008.023a4.775,4.775,0,0,0,1.015,3.159l-.686,0a5.063,5.063,0,0,1-.728-3.26c.069-1.026,2.177-32.448,2.865-36.844a9.1,9.1,0,0,1,4.073-6.388c.057.016.115.033.172.051Z" transform="translate(-479.486 -1278.563)" fill="#263238"/>
          </g>
        </g>
      </g>
      <path id="Path_44603" data-name="Path 44603" d="M599.889,996.031c-1.342,1.569-13.058,1.267-15.7.68q-2.714-.6-4.208-5.716c-.33,2.378-1.073,5.167-2.735,5.34-2.723.283-3.85-.187-4.177-1.22-.054-.168.5-7.357.979-14.588.332-4.984.629-9.992.669-12.727,0-.344,0-.65,0-.919a41.7,41.7,0,0,0-6.01-.049,37.305,37.305,0,0,1,6.77-12.049c4.365-4.986,14.768-3.507,18.982-2.261,2.658.786,5.167,3.64,3.869,9.683-.762,3.556.325,9.262.76,17.673C599.51,987.963,600.179,995.694,599.889,996.031Z" transform="translate(-526.939 -926.242)" fill="#2a83e8"/>
      <path id="Path_44604" data-name="Path 44604" d="M703.988,963.216s3.258,2.656,5.128,14.656c0,0-1.052,1.451-4.169,1.062S703.988,963.216,703.988,963.216Z" transform="translate(-634.275 -935.742)" fill="#2a83e8"/>
      <path id="Path_44605" data-name="Path 44605" d="M629.063,840.884s-7.557-8.582-11.271-2.852c0,0-2.854,1.278-3.762,6.223-.926,5.045,2.515,8.764,4.214,7.774,1.089-.635,1.98,1.277,1.98,1.277Z" transform="translate(-562.969 -834.305)" fill="#233862"/>
      <path id="Path_44606" data-name="Path 44606" d="M604.669,830.194s-1.093-3.9-6.834-2.515c0,0,2.755-.425,3.543.619,0,0-2.219-.942-3.568-.064s-1.5,3.711-1.266,4.565,1.816,3.373,2.819,3.344a4.62,4.62,0,0,0,2.167-.942Z" transform="translate(-549.072 -827.38)" fill="#233862"/>
      <path id="Path_44607" data-name="Path 44607" d="M642.477,922.815c-.155-.853.7-2.352.548-7.108l.37.062,6.22,1.052s.145,5.057.192,6.891C649.845,925.241,642.359,924.173,642.477,922.815Z" transform="translate(-585.771 -897.842)" fill="#aa6550"/>
      <path id="Path_44608" data-name="Path 44608" d="M653.307,917.067s.055,1.833.1,3.667c-3.464,0-5.523-2.99-6.322-4.719Z" transform="translate(-589.463 -898.088)" opacity="0.2"/>
      <path id="Path_44609" data-name="Path 44609" d="M634.082,862.236a18.2,18.2,0,0,1-2.4-5.254c-.36-1.741.351-8.251,6.894-7.5a8.859,8.859,0,0,1,3.711,1.286c1.442.916,3.541,2.922,1.416,8.645l-.54,1.928Z" transform="translate(-577.115 -844.965)" fill="#233862"/>
      <path id="Path_44610" data-name="Path 44610" d="M650.094,875.448s-8.185.363-8.333-4.737-1.3-8.489,3.916-8.937,6.292,1.469,6.756,3.16S652.219,875.221,650.094,875.448Z" transform="translate(-585.046 -854.764)" fill="#aa6550"/>
      <path id="Path_44611" data-name="Path 44611" d="M639.252,857.028s-2.076,6.047-5.492,7.028-4.935.1-4.935.1a9.749,9.749,0,0,0,3.027-5.846S637.481,854.227,639.252,857.028Z" transform="translate(-574.896 -850.249)" fill="#233862"/>
      <path id="Path_44612" data-name="Path 44612" d="M677.694,859.369a7.233,7.233,0,0,1,2.156,2.577c.445,1.288.7,3.957,1.48,3.844,0,0,1.576-4.115-.387-6.363C678.862,857.043,677.694,859.369,677.694,859.369Z" transform="translate(-613.88 -852.088)" fill="#233862"/>
      <path id="Path_44613" data-name="Path 44613" d="M656.745,857.989s-1.422,6.312-5.709,8.44c0,0,4.234-3.972,4.488-8.119S656.745,857.989,656.745,857.989Z" transform="translate(-592.613 -850.514)" fill="#233862"/>
      <path id="Path_44614" data-name="Path 44614" d="M538.173,1170.624s-2.047,2.383-2.268,3.622-.105,4.548.524,4.666c.672.127,1.069-2.17,1.286-2.62.731-1.521,2.169-.808,2.36-1.354a26.747,26.747,0,0,0,.383-3.167Z" transform="translate(-500.686 -1101.2)" fill="#aa6550"/>
      <path id="Path_44615" data-name="Path 44615" d="M554.45,1008.842s-5.531,10.781-5.843,15.3-1.08,17.424-1.08,17.424l2.285,1.147s4.74-17.013,5.03-19.587c.323-2.87,9.7-12.39,9.7-12.39Z" transform="translate(-510.04 -972.14)" fill="#aa6550"/>
      <path id="Path_44616" data-name="Path 44616" d="M581.186,988.338h-8.259l-4.219,8.035s6.728,5.567,13.43,3.307S581.186,988.338,581.186,988.338Z" transform="translate(-526.937 -955.783)" fill="#2a83e8"/>
    </g>
    <path id="Path_44645" data-name="Path 44645" d="M732.869,1526.271H137.81a.579.579,0,0,1-.577-.577h0a.579.579,0,0,1,.577-.577H732.869a.579.579,0,0,1,.577.577h0A.579.579,0,0,1,732.869,1526.271Z" transform="translate(7811.912 -746.941)" fill="#2e3552"/>
    <g id="Group_15999" data-name="Group 15999" transform="translate(8294.871 633.472)">
      <path id="Path_44646" data-name="Path 44646" d="M1494.027,1136.861s.471.546.743.877a2.882,2.882,0,0,1,.429,1.812c-.176.214-1.286.526-1.324-.136S1494.027,1136.861,1494.027,1136.861Z" transform="translate(-1454.616 -1070.686)" fill="#ffb27d"/>
      <path id="Path_44647" data-name="Path 44647" d="M1689.076,1111.109s1.019,2.3,2.962,2.76c2.375.567,3.413,3.551,3.413,4.235s-3.037-1.54-4.235-1.583-1.84.569-2.653-1.02-1.84-3.13-1.84-3.13Z" transform="translate(-1608.463 -1050.142)" fill="#ffb27d"/>
      <path id="Path_44648" data-name="Path 44648" d="M1506.675,943.886a6.3,6.3,0,0,0,2.855-.629c10.271-5.1.736-40.134.736-40.134a3.723,3.723,0,0,0-2.352-2.424,26.2,26.2,0,0,0-4.184-.359c-6.142-.447-6.447,3.143-6.662,4.4C1496.835,906.015,1491.95,943.814,1506.675,943.886Z" transform="translate(-1456.401 -881.973)" fill="#2b478b"/>
      <path id="Path_44649" data-name="Path 44649" d="M1532.6,944.826c10.271-5.1.736-40.134.736-40.134a4.348,4.348,0,0,0-2.353-2.424c-3.969,1.042-4.794,2.927-5.01,4.041C1525.774,907.494,1521.572,939.942,1532.6,944.826Z" transform="translate(-1479.468 -883.542)" fill="#233862"/>
      <g id="Group_15992" data-name="Group 15992" transform="translate(31.991 65.203)">
        <path id="Path_44650" data-name="Path 44650" d="M1599.3,1492.14s-.571,4.567.457,5.08,13.3.342,13.3.342,0-1.541-2.112-1.884-5.823-1.6-6.45-4.4S1599.3,1492.14,1599.3,1492.14Z" transform="translate(-1570.583 -1417.785)" fill="#233862"/>
        <path id="Path_44651" data-name="Path 44651" d="M1578.376,1150.186s-.694,8.653-1.509,19.054c-1.108,14.13-2.441,31.485-2.572,34.773-.228,5.709-1.142,14.842-1.142,14.842s-2.168,2.17-6.507,1.255a149.4,149.4,0,0,1-4.971-26.831c-.017-.226-.034-.454-.051-.682-1.027-14.042-2.625-43.611-2.625-43.611Z" transform="translate(-1538.562 -1145.562)" fill="#455a64"/>
        <path id="Path_44652" data-name="Path 44652" d="M1578.376,1150.186s-.694,8.653-1.509,19.054l-15.193,24.04c-.017-.226-.034-.454-.051-.682-1.027-14.042-2.625-43.611-2.625-43.611Z" transform="translate(-1538.562 -1145.562)" fill="#263238"/>
        <path id="Path_44653" data-name="Path 44653" d="M1494.608,1137.706s-12.5,31.338-20.72,46.065-10.788,18.837-10.788,18.837-4.709-1.884-5.137-3.168c0,0,3.143-28.431,8.648-35.362,3.11-3.916,6.764-15.669,6.935-19.779s1.113-12.244,1.113-12.244Z" transform="translate(-1457.962 -1132.055)" fill="#455a64"/>
      </g>
      <path id="Path_44654" data-name="Path 44654" d="M1571.159,881.975c-4.886,1.541-13.337-2.621-13.337-2.621a12.21,12.21,0,0,0,4.049-7.266s0,0,0,0a14.96,14.96,0,0,0,.22-3.14l4.57,3.684,1.772,1.428s0,.484-.079,1.375-.215,2.207-.493,3.85A11.686,11.686,0,0,1,1571.159,881.975Z" transform="translate(-1505.633 -856.96)" fill="#ffb27d"/>
      <path id="Path_44655" data-name="Path 44655" d="M1585.585,975.723a3.973,3.973,0,0,0,1.307-1.586s-8.834-12.1-9.579-13.284S1571,940.725,1571,940.725l-14.08-2.852s11.753,24.247,13.7,27.2c3.218,4.885,13.324,11.545,13.324,11.545A5.055,5.055,0,0,0,1585.585,975.723Z" transform="translate(-1504.914 -911.945)" fill="#bbc0cd"/>
      <path id="Path_44656" data-name="Path 44656" d="M1535.835,956.685c-.018.288.305.61.682.862a6.549,6.549,0,0,0,.88.485q1.616.727,3.178,1.293a29.24,29.24,0,0,0,7.632,1.813,44.844,44.844,0,0,0,8.458-.233c1.365-.162,2.479-.288,3.161-.288h.09a.783.783,0,0,0,.521-.2c.108-.072.2-4.346.144-10.092,0-.808-.018-1.634-.018-2.5a6.61,6.61,0,0,0-.036-.843v-.09c-.018-2.694-.108-5.549-.234-8.367v-.054c-.269-6.267-.754-12.3-1.6-15.658-.764-3.1-3.831-6.584-6.1-8.862a8.992,8.992,0,0,0-3.7-2.24c-2.419-.755-6.159-1.768-6.939-1.091a8.038,8.038,0,0,0-1.616,1.76c-.036.017-.036.017-.036.036h-.018a14.069,14.069,0,0,0-1.113,1.94,23.342,23.342,0,0,0-1.437,3.9,53.921,53.921,0,0,0-1.616,14.186c0,1.347.036,2.711.126,4.094.018.4.036.773.054,1.15.161,3.43.144,6.609.054,9.392v.09c-.089,2.82-.251,5.208-.377,6.986C1535.907,955.23,1535.853,956.092,1535.835,956.685Z" transform="translate(-1488.093 -890.03)" fill="#bbc0cd"/>
      <path id="Path_44657" data-name="Path 44657" d="M1536.535,1013.491a134.881,134.881,0,0,0,.268-17.611c-.078-1.383-.12-2.755-.125-4.107,1.671-4.054,3.037-6.994,3.037-6.994h4.212S1547.016,1005.873,1536.535,1013.491Z" transform="translate(-1488.652 -949.365)" fill="#2c56b2"/>
      <path id="Path_44658" data-name="Path 44658" d="M1584.394,886.442s0,.484-.079,1.375a12.088,12.088,0,0,1-6.483-3.346l0,0h0l4.79.545Z" transform="translate(-1521.595 -869.343)" fill="#e8945b"/>
      <path id="Path_44659" data-name="Path 44659" d="M1579.6,840.994s-8.069,1.341-8.826-3.7-2.309-8.258,2.811-9.326,6.412.7,7.073,2.323S1581.68,840.516,1579.6,840.994Z" transform="translate(-1515.308 -824.012)" fill="#ffb27d"/>
      <path id="Path_44660" data-name="Path 44660" d="M1566.253,822.482s.828-.138.695-1.279-.132-2.631.8-2.353.974,1.02,1.355.587.388-2.26,3.147-2.387,3.881.833,5.164.269,1.351-2.506,1.351-2.506a2.207,2.207,0,0,1-.916.914s2.141-2.928-.337-4.935-5.005-.694-6.44-.607c-3.16.191-5.2.381-6.233,2.457S1564.225,820.484,1566.253,822.482Z" transform="translate(-1510.793 -809.682)" fill="#2b478b"/>
      <g id="Group_15998" data-name="Group 15998" transform="translate(0 68.045)">
        <path id="Path_44661" data-name="Path 44661" d="M1339.593,1497.289a2.974,2.974,0,0,1-1.627,3.945,3.128,3.128,0,0,1-4.061-1.58,2.974,2.974,0,0,1,1.627-3.945A3.128,3.128,0,0,1,1339.593,1497.289Z" transform="translate(-1326.806 -1424.805)" fill="#1c468a"/>
        <path id="Path_44662" data-name="Path 44662" d="M1449.3,1497.274a2.974,2.974,0,0,1-1.627,3.945,3.128,3.128,0,0,1-4.061-1.58,2.974,2.974,0,0,1,1.627-3.945A3.128,3.128,0,0,1,1449.3,1497.274Z" transform="translate(-1414.326 -1424.793)" fill="#1c468a"/>
        <path id="Path_44663" data-name="Path 44663" d="M1331.386,1491.3l4.4,1.535a4.107,4.107,0,0,0,1.387.228l24.959-.248,2.725-4.389Z" transform="translate(-1324.996 -1419.191)" fill="#455a64"/>
        <g id="Group_15993" data-name="Group 15993" transform="translate(19.567)">
          <path id="Path_44664" data-name="Path 44664" d="M1397.534,1169.747l6.972-16.836.009-.032c.042-.151,1.128-3.766,7.41-4.575l.029,0,5.167-.946c.668-.171,2.6-.458,3.48.266a1.652,1.652,0,0,1,.485,1.537c-.13,1.412-4.77,12.329-7.857,19.322l.988.412c.793-1.8,7.753-17.609,7.939-19.641a2.631,2.631,0,0,0-.865-2.431c-1.444-1.181-4.141-.552-4.428-.481l-5.1.932c-6.765.876-8.147,4.852-8.285,5.308l-6.948,16.779Z" transform="translate(-1396.536 -1146.107)" fill="#263238"/>
        </g>
        <path id="Path_44665" data-name="Path 44665" d="M1456.552,1238.338l13.469,2.616s3.928,1.552,3.149,8.238c-.686,5.883-3.691,38.894-3.691,38.894s-.627,6.869-15.73,4.877Z" transform="translate(-1422.609 -1219.683)" fill="#fcbf02"/>
        <path id="Path_44666" data-name="Path 44666" d="M1341.2,1247.158l-3.622,36.968a8.183,8.183,0,0,1-1.532,4.022,8.67,8.67,0,0,1-6.975,3.54l-12.492.075-.309,0-7.824.047a8.871,8.871,0,0,1-2.267-.278q-.253-.065-.5-.144a8.5,8.5,0,0,1-5.564-5.647,8.091,8.091,0,0,1-.222-3.57l5.673-35.371a8.5,8.5,0,0,1,7.679-7.03l2.207-.205.526-.048h0l.442-.041,7.376-.685.905-.084,7.117-.66a8.838,8.838,0,0,1,3.2.286c.066.019.132.037.2.059l.411.137A8.346,8.346,0,0,1,1341.2,1247.158Z" transform="translate(-1299.794 -1219.423)" fill="#ffd349"/>
        <path id="Path_44667" data-name="Path 44667" d="M1336.108,1469.091a8.671,8.671,0,0,1-6.975,3.54l-12.492.075-.309,0-7.823.047a8.87,8.87,0,0,1-2.267-.278c-.169-.043-.335-.091-.5-.144-2.708-.873-5.83-4.058-5.875-7.437,0,0,26.426-.336,31.949.493C1334.666,1465.818,1335.518,1467.753,1336.108,1469.091Z" transform="translate(-1299.853 -1400.366)" fill="#fcbf02"/>
        <g id="Group_15997" data-name="Group 15997" transform="translate(3.462 18.913)">
          <g id="Group_15994" data-name="Group 15994" transform="translate(0 1.143)">
            <path id="Path_44668" data-name="Path 44668" d="M1330.08,1245.268c-.055.033-5.849,3.462-6.61,6.476-.783,3.1-6.014,39.193-6.066,39.557a8.24,8.24,0,0,0,2.83,6.116l-.4-.093c-.169-.043-.335-.091-.5-.143a7.377,7.377,0,0,1-2.4-5.942c.215-1.49,5.288-36.484,6.075-39.6.691-2.733,4.775-5.456,6.1-6.278l.526-.048h0Z" transform="translate(-1316.909 -1245.268)" fill="#263238"/>
          </g>
          <g id="Group_15995" data-name="Group 15995" transform="translate(12.195 0.374)">
            <path id="Path_44669" data-name="Path 44669" d="M1386.458,1241.466a10.956,10.956,0,0,0-4.694,7.233c-.8,5.086-3.906,42.028-3.937,42.4l0,.027-.008.025a4.016,4.016,0,0,0,.83,3.367l-.314,0-.309,0a3.86,3.86,0,0,1-.665-3.485c.1-1.142,3.15-37.361,3.94-42.406a11.35,11.35,0,0,1,4.254-7.081Z" transform="translate(-1377.201 -1241.466)" fill="#263238"/>
          </g>
          <g id="Group_15996" data-name="Group 15996" transform="translate(23.768)">
            <path id="Path_44670" data-name="Path 44670" d="M1443.034,1239.811a9.734,9.734,0,0,0-2.265,1.817,10.31,10.31,0,0,0-2.552,5.388c-.8,5.084-3.262,41.9-3.287,42.272v.029l-.009.026a5.48,5.48,0,0,0,1.165,3.626l-.787,0a5.81,5.81,0,0,1-.836-3.742c.079-1.177,2.5-37.241,3.289-42.286a10.443,10.443,0,0,1,4.675-7.332c.066.019.132.037.2.058Z" transform="translate(-1434.42 -1239.615)" fill="#263238"/>
          </g>
        </g>
      </g>
      <path id="Path_44671" data-name="Path 44671" d="M1480.137,1111.372l-1.757,4.3a2.378,2.378,0,0,0-.061,1.6,3.952,3.952,0,0,1-2.01,4.851s-1.575.786-1.823-.434.033-.778-.358-2.492c-.342-1.5.433-2.426.94-3.463a4.549,4.549,0,0,0,.385-1.439l.356-2.7Z" transform="translate(-1438.8 -1050.352)" fill="#ffb27d"/>
      <path id="Path_44672" data-name="Path 44672" d="M1477.313,971.455a13.8,13.8,0,0,0,3.161.176s4.5-13.911,5.083-15.181,13.375-15.394,13.375-15.394l-8.106-11.086s-11.065,19.947-12.471,23.2c-2.322,5.368-3.128,17.4-3.128,17.4A5.789,5.789,0,0,0,1477.313,971.455Z" transform="translate(-1439.745 -905.641)" fill="#bbc0cd"/>
      <path id="Path_44673" data-name="Path 44673" d="M1538.112,955v.09a14.326,14.326,0,0,0,5.944-3,22.5,22.5,0,0,0,6.626-10.254c2.083-6.123,2.245-12.7,1.185-15.928a5.514,5.514,0,0,0-.485-1.077,7.9,7.9,0,0,0-1.473-1.832,10.307,10.307,0,0,0-5.656-2.55,12.445,12.445,0,0,0-1.275-.108c-.5-.018-.826,0-.916,0h-.018c-1.044.293-1.847,1.024-1.114,1.94a8.1,8.1,0,0,1,.916-.036,9.089,9.089,0,0,1,3.286.449,6.614,6.614,0,0,1,3.466,2.55c2.227,3.124,1.742,7.6,1.742,7.6a37.377,37.377,0,0,1-1.005,6.3,23.747,23.747,0,0,1-4.453,9.374,13.946,13.946,0,0,1-6.724,4.851,3.967,3.967,0,0,0-.118.848A2.373,2.373,0,0,0,1538.112,955Z" transform="translate(-1489.85 -897.958)" fill="#233862"/>
      <path id="Path_44674" data-name="Path 44674" d="M1696.593,1134.223a3.8,3.8,0,0,0,1.357,1.278c.706.273,1.823,1.193,1.931.946s-.064-.674-.481-.973-.545-.674-.439-.9S1696.593,1134.223,1696.593,1134.223Z" transform="translate(-1616.337 -1068.582)" fill="#ffb27d"/>
    </g>
    <g id="Group_16000" data-name="Group 16000" transform="translate(8182.104 606.685)">
      <path id="Path_44675" data-name="Path 44675" d="M1307.977,677.246c-10.472,0-18.96,9.13-18.96,20.389s18.96,29.257,18.96,29.257,18.96-18,18.96-29.257S1318.449,677.246,1307.977,677.246Zm0,30.365a11.172,11.172,0,1,1,11.172-11.172A11.154,11.154,0,0,1,1307.977,707.611Z" transform="translate(-1289.017 -677.246)" fill="#263238"/>
    </g>
    <g id="Group_16004" data-name="Group 16004" transform="translate(8206.46 530.21)">
      <g id="Group_16001" data-name="Group 16001" transform="translate(0 71.486)">
        <path id="Path_44676" data-name="Path 44676" d="M1410.141,655.363a.7.7,0,0,1-.7-.8c0-.02.07-.507.212-1.4a.7.7,0,1,1,1.385.221c-.14.877-.207,1.366-.208,1.371A.7.7,0,0,1,1410.141,655.363Z" transform="translate(-1409.438 -652.574)" fill="#fcbf02"/>
      </g>
      <g id="Group_16002" data-name="Group 16002" transform="translate(0.688)">
        <path id="Path_44677" data-name="Path 44677" d="M1413.542,369.215a.708.708,0,0,1-.125-.011.7.7,0,0,1-.566-.814c.165-.921.344-1.871.53-2.823a.7.7,0,1,1,1.377.27c-.185.945-.362,1.887-.526,2.8A.7.7,0,0,1,1413.542,369.215Zm1.1-5.615a.711.711,0,0,1-.146-.015.7.7,0,0,1-.541-.831c.2-.929.4-1.872.613-2.8a.7.7,0,0,1,1.368.31c-.209.924-.414,1.861-.609,2.783A.7.7,0,0,1,1414.641,363.6Zm1.262-5.576a.715.715,0,0,1-.165-.02.7.7,0,0,1-.517-.846c.224-.928.457-1.864.693-2.783a.7.7,0,0,1,1.359.349c-.234.912-.466,1.842-.688,2.763A.7.7,0,0,1,1415.9,358.024Zm1.422-5.535a.7.7,0,0,1-.677-.886c.253-.925.514-1.854.776-2.761a.7.7,0,1,1,1.347.39c-.26.9-.52,1.822-.77,2.74A.7.7,0,0,1,1417.325,352.489Zm1.59-5.487a.7.7,0,0,1-.67-.908c.282-.917.573-1.837.866-2.735a.7.7,0,1,1,1.333.435c-.29.89-.579,1.8-.859,2.711A.7.7,0,0,1,1418.915,347Zm1.772-5.43a.7.7,0,0,1-.663-.931c.315-.91.64-1.819.965-2.7a.7.7,0,1,1,1.316.485c-.322.874-.644,1.775-.956,2.677A.7.7,0,0,1,1420.688,341.572Zm83.055-1.668a.7.7,0,0,1-.638-.409c-.386-.842-.8-1.7-1.218-2.564a.7.7,0,0,1,1.259-.619c.428.871.844,1.745,1.235,2.6a.7.7,0,0,1-.637.994Zm-81.081-3.691a.7.7,0,0,1-.653-.957c.351-.894.712-1.788,1.075-2.656a.7.7,0,1,1,1.294.54c-.359.859-.716,1.743-1.063,2.628A.7.7,0,0,1,1422.662,336.213Zm78.562-1.438a.7.7,0,0,1-.622-.376c-.44-.84-.894-1.68-1.349-2.5a.7.7,0,0,1,1.226-.682c.461.828.92,1.68,1.366,2.53a.7.7,0,0,1-.621,1.027Zm-76.361-3.824a.7.7,0,0,1-.64-.987c.4-.885.8-1.763,1.208-2.613a.7.7,0,0,1,1.265.606c-.4.838-.8,1.705-1.192,2.579A.7.7,0,0,1,1424.863,330.95Zm73.582-1.168a.7.7,0,0,1-.6-.344c-.483-.816-.98-1.631-1.477-2.422a.7.7,0,0,1,1.188-.746c.5.8,1.008,1.628,1.5,2.455a.7.7,0,0,1-.6,1.058Zm-71.113-3.985a.7.7,0,0,1-.623-1.022c.444-.863.9-1.716,1.356-2.537a.7.7,0,0,1,1.226.681c-.449.808-.9,1.648-1.336,2.5A.7.7,0,0,1,1427.332,325.8Zm68.071-.849a.7.7,0,0,1-.583-.311c-.528-.789-1.071-1.573-1.612-2.331a.7.7,0,0,1,1.141-.816c.55.769,1.1,1.565,1.637,2.366a.7.7,0,0,1-.583,1.092Zm-65.3-4.139a.7.7,0,0,1-.6-1.063c.5-.833,1.019-1.654,1.534-2.438a.7.7,0,0,1,1.172.771c-.506.769-1.012,1.574-1.505,2.392A.7.7,0,0,1,1430.107,320.809Zm61.974-.505a.7.7,0,0,1-.558-.275c-.578-.755-1.17-1.5-1.759-2.216a.7.7,0,1,1,1.083-.892c.6.728,1.2,1.487,1.791,2.255a.7.7,0,0,1-.556,1.128Zm-58.835-4.259a.7.7,0,0,1-.568-1.112c.572-.792,1.16-1.565,1.747-2.3a.7.7,0,0,1,1.1.877c-.573.716-1.147,1.47-1.706,2.243A.7.7,0,0,1,1433.246,316.045Zm55.2-.145a.7.7,0,0,1-.524-.235c-.634-.712-1.281-1.408-1.922-2.069a.7.7,0,0,1,1.007-.977c.655.675,1.315,1.386,1.963,2.113a.7.7,0,0,1-.523,1.168Zm-3.978-4.1a.7.7,0,0,1-.48-.19c-.694-.652-1.4-1.284-2.1-1.877a.7.7,0,1,1,.907-1.07c.719.609,1.444,1.257,2.155,1.925a.7.7,0,0,1-.48,1.212Zm-47.655-.206a.7.7,0,0,1-.522-1.169c.655-.73,1.327-1.435,2-2.094a.7.7,0,1,1,.983,1c-.651.639-1.3,1.322-1.938,2.03A.7.7,0,0,1,1436.816,311.6Zm43.3-3.477a.7.7,0,0,1-.422-.142c-.756-.571-1.526-1.116-2.291-1.621a.7.7,0,1,1,.773-1.17c.789.521,1.583,1.084,2.362,1.672a.7.7,0,0,1-.423,1.261Zm-39.229-.509a.7.7,0,0,1-.454-1.236c.749-.637,1.518-1.24,2.286-1.792a.7.7,0,0,1,.819,1.139c-.737.531-1.476,1.11-2.2,1.722A.7.7,0,0,1,1440.887,307.611Zm34.474-2.628a.7.7,0,0,1-.345-.091c-.82-.464-1.655-.9-2.482-1.288a.7.7,0,1,1,.6-1.269c.859.4,1.725.854,2.576,1.336a.7.7,0,0,1-.346,1.312Zm-29.851-.688a.7.7,0,0,1-.357-1.305c.846-.5,1.715-.957,2.582-1.359a.7.7,0,1,1,.59,1.273c-.825.383-1.652.818-2.458,1.294A.7.7,0,0,1,1445.51,304.3Zm24.7-1.735a.7.7,0,0,1-.246-.045c-.876-.329-1.768-.621-2.653-.867a.7.7,0,1,1,.377-1.351c.923.257,1.855.562,2.769.9a.7.7,0,0,1-.247,1.358Zm-19.54-.649a.7.7,0,0,1-.226-1.365,26.383,26.383,0,0,1,2.811-.785.7.7,0,1,1,.3,1.37,25,25,0,0,0-2.661.743A.7.7,0,0,1,1450.668,301.912Zm14.056-.877a.7.7,0,0,1-.127-.012c-.911-.166-1.838-.291-2.755-.371a.7.7,0,0,1,.122-1.4c.961.084,1.932.215,2.885.389a.7.7,0,0,1-.125,1.392Zm-8.512-.342a.7.7,0,0,1-.072-1.4c.3-.031.595-.057.888-.078.675-.048,1.357-.074,2.027-.079a.7.7,0,1,1,.009,1.4c-.64,0-1.292.03-1.938.075-.278.02-.56.044-.841.074A.714.714,0,0,1,1456.211,300.694Z" transform="translate(-1412.84 -299.138)" fill="#fcbf02"/>
      </g>
      <g id="Group_16003" data-name="Group 16003" transform="translate(92.011 41.909)">
        <path id="Path_44678" data-name="Path 44678" d="M1865.583,509.042a.7.7,0,0,1-.656-.452s-.178-.466-.519-1.276a.7.7,0,0,1,1.293-.544c.351.835.529,1.3.537,1.321a.7.7,0,0,1-.655.951Z" transform="translate(-1864.353 -506.34)" fill="#fcbf02"/>
      </g>
    </g>
  </g>
</svg>
