<svg xmlns="http://www.w3.org/2000/svg" width="375.59" height="327.617" viewBox="0 0 375.59 327.617">
  <g id="Group_19615" data-name="Group 19615" transform="translate(-694.063 -713)">
    <path id="Path_36564" data-name="Path 36564" d="M1085.275,2744.675a8.751,8.751,0,0,1-7.865,0L922.63,2655.3c-3.329-1.935-3.329-5.076,0-6.988l77.394-44.638a9.838,9.838,0,0,1,8.923,0l155.839,89.971c2.458,1.423,2.458,3.744,0,5.144Z" transform="translate(-207.708 -1728.438)" fill="#263238" opacity="0.3"/>
    <path id="Path_36717" data-name="Path 36717" d="M1098.921,2489.94l3.084-1.752a.771.771,0,0,0,.171-.159.558.558,0,0,0,.08-.216.571.571,0,0,0-.023-.239.667.667,0,0,0-.114-.194l-4.814-6.009-3.084,1.764,4.8,6.01a.459.459,0,0,1,.114.2.473.473,0,0,1,.023.217.5.5,0,0,1-.08.216A.358.358,0,0,1,1098.921,2489.94Z" transform="translate(-183.658 -1745.186)" fill="#fcbf02"/>
    <path id="Path_36712" data-name="Path 36712" d="M1072.193,2461.137l28.169,16.264a1.207,1.207,0,0,1,.41.421,1.368,1.368,0,0,1,.159.558v19.736a1.369,1.369,0,0,1-.159.558,1.31,1.31,0,0,1-.41.421l-2,1.161a1.265,1.265,0,0,1-.569.137,1.2,1.2,0,0,1-.569-.137l-28.192-16.264a1.2,1.2,0,0,1-.4-.432,1.229,1.229,0,0,1-.171-.558v-19.759a1.228,1.228,0,0,1,.171-.558,1.364,1.364,0,0,1,.4-.409l2.037-1.138a1.186,1.186,0,0,1,.558-.137A1.2,1.2,0,0,1,1072.193,2461.137Z" transform="translate(-187.217 -1748)" fill="#fcbf02"/>
    <path id="Path_36716" data-name="Path 36716" d="M1068.47,2463.139c.046-.284.273-.387.558-.216l28.169,16.253a1.09,1.09,0,0,1,.4.421l3.164-1.787a1.059,1.059,0,0,0-.4-.41l-28.169-16.264a1.2,1.2,0,0,0-.569-.137,1.265,1.265,0,0,0-.569.137l-1.98,1.127a1.138,1.138,0,0,0-.4.375A1.3,1.3,0,0,0,1068.47,2463.139Z" transform="translate(-187.215 -1748)" fill="#fff" opacity="0.4"/>
    <path id="Path_36722" data-name="Path 36722" d="M986.707,2516.345l-3.083-5.679,2.436-7.034v-4.3l-7.452,4.3v4.3l3.2,5.554a.459.459,0,0,0,.223.182Z" transform="translate(-199.63 -1742.704)" fill="#fcbf02"/>
    <path id="Path_36723" data-name="Path 36723" d="M986.707,2516.345l-3.083-5.679,2.436-7.034v-4.3l-7.452,4.3v4.3l3.2,5.554a.459.459,0,0,0,.223.182Z" transform="translate(-199.63 -1742.704)" opacity="0.2"/>
    <path id="Path_36559" data-name="Path 36559" d="M1091.795,2776.379c103.708,0,187.795-50.773,187.795-113.406S1195.5,2549.58,1091.795,2549.58,904,2600.353,904,2662.974,988.077,2776.379,1091.795,2776.379Z" transform="translate(-209.937 -1735.763)" fill="#e9f3fe"/>
    <path id="Path_36560" data-name="Path 36560" d="M1165.033,2707.857l-77.679,44.832a8.3,8.3,0,0,1-8.092.148l-156.374-90.278c-2.466-1.423-4.462-4.632-4.462-7.114s2-5.679,4.454-7.1l77.387-44.7a9.914,9.914,0,0,1,8.915,0l155.85,89.994c2.458,1.434,4.461,4.632,4.461,7.113S1167.492,2706.435,1165.033,2707.857Z" transform="translate(-207.944 -1728.439)" fill="#407bff"/>
    <path id="Path_36561" data-name="Path 36561" d="M1000.268,2603.657l-77.387,44.7c-2.457,1.423-4.462,4.621-4.454,7.1s2,5.691,4.454,7.113l156.382,90.267a8.674,8.674,0,0,0,3.847.967V2646.361l-73.972-42.7a9.917,9.917,0,0,0-8.87,0Z" transform="translate(-207.944 -1728.437)" fill="#426ec1" opacity="0.5"/>
    <path id="Path_36562" data-name="Path 36562" d="M1067.362,2747.376l77.679-44.832c2.458-1.423,4.462-4.632,4.462-7.113s-2-5.679-4.462-7.1l-81.9-47.279v107.441A8.2,8.2,0,0,0,1067.362,2747.376Z" transform="translate(-187.952 -1723.126)" fill="#455a64" opacity="0.4"/>
    <path id="Path_36563" data-name="Path 36563" d="M1085.275,2744.675a8.751,8.751,0,0,1-7.865,0L922.63,2655.3c-3.329-1.935-3.329-5.076,0-6.988l77.394-44.638a9.838,9.838,0,0,1,8.923,0l155.839,89.971c2.458,1.423,2.458,3.744,0,5.144Z" transform="translate(-207.708 -1728.438)" fill="#9fc1f4"/>
    <path id="Path_36565" data-name="Path 36565" d="M1076.036,2734.691a9.289,9.289,0,0,1-8.479,0L934.371,2657.8c-2.312-1.343-2.312-3.54,0-4.883l72.8-42.043a9.458,9.458,0,0,1,8.471,0l133.186,76.894c2.31,1.354,2.31,3.551,0,4.905Z" transform="translate(-205.981 -1727.434)" fill="#37474f"/>
    <path id="Path_36566" data-name="Path 36566" d="M1011.161,2609.88a8.827,8.827,0,0,0-3.987.99l-72.8,42.043c-2.312,1.343-2.312,3.54,0,4.894l14.433,8.32,62.357-39.812Z" transform="translate(-205.981 -1727.432)" fill="#263238"/>
    <path id="Path_36567" data-name="Path 36567" d="M1015.62,2613.673a9.369,9.369,0,0,0-8.475,0l-72.81,42.032a4.246,4.246,0,0,0-1.1.888,4.142,4.142,0,0,0,1.055.819l133.185,76.894a9.287,9.287,0,0,0,8.479,0l72.807-42.02a4.821,4.821,0,0,0,1.093-.876,4.111,4.111,0,0,0-1.047-.842Z" transform="translate(-205.898 -1727.048)" fill="#407bff"/>
    <path id="Path_36568" data-name="Path 36568" d="M1015.62,2613.673a9.369,9.369,0,0,0-8.475,0l-72.81,42.032a4.246,4.246,0,0,0-1.1.888,4.142,4.142,0,0,0,1.055.819l133.185,76.894a9.287,9.287,0,0,0,8.479,0l72.807-42.02a4.821,4.821,0,0,0,1.093-.876,4.111,4.111,0,0,0-1.047-.842Z" transform="translate(-205.898 -1727.048)" fill="#fff" opacity="0.75"/>
    <path id="Path_36569" data-name="Path 36569" d="M957.925,2631.54l12.908-7.466c.771-.456.771-1.15.084-1.548a2.94,2.94,0,0,0-1.354-.3,3.066,3.066,0,0,0-1.342.353l-12.892,7.455c-.771.432-.771,1.138-.085,1.536a2.935,2.935,0,0,0,2.682-.034Z" transform="translate(-202.927 -1725.726)" fill="#37474f"/>
    <path id="Path_36570" data-name="Path 36570" d="M977.421,2619.415a.757.757,0,0,0,.544-.228.772.772,0,0,0,0-1.093.757.757,0,0,0-.544-.228,2.931,2.931,0,0,0-2.613,0,.757.757,0,0,0-.544.228.772.772,0,0,0,0,1.093.757.757,0,0,0,.544.228,2.933,2.933,0,0,0,2.613,0Z" transform="translate(-200.261 -1726.371)" fill="#37474f"/>
    <path id="Path_36571" data-name="Path 36571" d="M982,2616.751a.813.813,0,0,0,.431-.273.779.779,0,0,0,0-.968.733.733,0,0,0-.431-.262,2.851,2.851,0,0,0-2.62,0,.73.73,0,0,0-.43.262.779.779,0,0,0,0,.968.81.81,0,0,0,.43.273,2.852,2.852,0,0,0,2.62,0Z" transform="translate(-199.606 -1726.734)" fill="#37474f"/>
    <path id="Path_36572" data-name="Path 36572" d="M945.249,2637.985a.757.757,0,0,0,.544-.228.772.772,0,0,0,0-1.093.794.794,0,0,0-.544-.216,2.834,2.834,0,0,0-2.612,0,.8.8,0,0,0-.545.216.775.775,0,0,0,0,1.093.759.759,0,0,0,.545.228,2.928,2.928,0,0,0,2.612,0Z" transform="translate(-204.706 -1723.806)" fill="#37474f"/>
    <path id="Path_36573" data-name="Path 36573" d="M949.818,2635.335a.823.823,0,0,0,0-1.548,2.933,2.933,0,0,0-2.613,0c-.724.421-.724,1.093,0,1.548a2.933,2.933,0,0,0,2.613,0Z" transform="translate(-204.043 -1724.172)" fill="#37474f"/>
    <path id="Path_36574" data-name="Path 36574" d="M967.9,2676.962a2.891,2.891,0,0,1,.974.979,3.037,3.037,0,0,1,.42,1.332.836.836,0,0,1-.08.456.79.79,0,0,1-.305.353c-.17.1-.771.478-.979.569a1,1,0,0,1-.517.08,1.065,1.065,0,0,1-.485-.193l-18.1-10.471a2.935,2.935,0,0,1-.973-.99,2.973,2.973,0,0,1-.421-1.32.9.9,0,0,1,.075-.433.982.982,0,0,1,.272-.342l1.01-.581a1.159,1.159,0,0,1,.519-.079,1.08,1.08,0,0,1,.489.193Z" transform="translate(-203.937 -1719.635)" fill="#407bff"/>
    <path id="Path_36575" data-name="Path 36575" d="M967.9,2676.962a2.891,2.891,0,0,1,.974.979,3.037,3.037,0,0,1,.42,1.332.836.836,0,0,1-.08.456.79.79,0,0,1-.305.353c-.17.1-.771.478-.979.569a1,1,0,0,1-.517.08,1.065,1.065,0,0,1-.485-.193l-18.1-10.471a2.935,2.935,0,0,1-.973-.99,2.973,2.973,0,0,1-.421-1.32.9.9,0,0,1,.075-.433.982.982,0,0,1,.272-.342l1.01-.581a1.159,1.159,0,0,1,.519-.079,1.08,1.08,0,0,1,.489.193Z" transform="translate(-203.937 -1719.635)" opacity="0.4"/>
    <path id="Path_36576" data-name="Path 36576" d="M966.956,2677.455l-18.131-10.471c-.771-.444-1.4-.136-1.4.706a3,3,0,0,0,1.4,2.311l18.131,10.459c.771.444,1.4.136,1.4-.706a3,3,0,0,0-1.4-2.3Z" transform="translate(-203.937 -1719.571)" fill="#407bff"/>
    <path id="Path_36577" data-name="Path 36577" d="M966.956,2677.455l-18.131-10.471c-.771-.444-1.4-.136-1.4.706a3,3,0,0,0,1.4,2.311l18.131,10.459c.771.444,1.4.136,1.4-.706a3,3,0,0,0-1.4-2.3Z" transform="translate(-203.937 -1719.571)" opacity="0.3"/>
    <path id="Path_36578" data-name="Path 36578" d="M945.438,2663.97a3.044,3.044,0,0,1,.973.99,2.977,2.977,0,0,1,.422,1.32.893.893,0,0,1-.077.467.945.945,0,0,1-.308.353l-.979.569a1,1,0,0,1-.516.068.947.947,0,0,1-.486-.182l-8.553-4.94a3.042,3.042,0,0,1-.973-.99,2.961,2.961,0,0,1-.421-1.321.9.9,0,0,1,.08-.432.892.892,0,0,1,.274-.342c.178-.114.832-.489,1.01-.58a.908.908,0,0,1,.519-.08.958.958,0,0,1,.491.182Z" transform="translate(-205.721 -1720.665)" fill="#407bff"/>
    <path id="Path_36579" data-name="Path 36579" d="M945.438,2663.97a3.044,3.044,0,0,1,.973.99,2.977,2.977,0,0,1,.422,1.32.893.893,0,0,1-.077.467.945.945,0,0,1-.308.353l-.979.569a1,1,0,0,1-.516.068.947.947,0,0,1-.486-.182l-8.553-4.94a3.042,3.042,0,0,1-.973-.99,2.961,2.961,0,0,1-.421-1.321.9.9,0,0,1,.08-.432.892.892,0,0,1,.274-.342c.178-.114.832-.489,1.01-.58a.908.908,0,0,1,.519-.08.958.958,0,0,1,.491.182Z" transform="translate(-205.721 -1720.665)" opacity="0.4"/>
    <path id="Path_36580" data-name="Path 36580" d="M944.468,2664.474l-8.553-4.94c-.771-.444-1.4-.125-1.4.706a2.978,2.978,0,0,0,.422,1.321,3.044,3.044,0,0,0,.973.99l8.553,4.94c.771.444,1.394.125,1.394-.706a3.039,3.039,0,0,0-.42-1.332A2.9,2.9,0,0,0,944.468,2664.474Z" transform="translate(-205.721 -1720.6)" fill="#407bff"/>
    <path id="Path_36581" data-name="Path 36581" d="M944.468,2664.474l-8.553-4.94c-.771-.444-1.4-.125-1.4.706a2.978,2.978,0,0,0,.422,1.321,3.044,3.044,0,0,0,.973.99l8.553,4.94c.771.444,1.394.125,1.394-.706a3.039,3.039,0,0,0-.42-1.332A2.9,2.9,0,0,0,944.468,2664.474Z" transform="translate(-205.721 -1720.6)" opacity="0.3"/>
    <path id="Path_36582" data-name="Path 36582" d="M1004.321,2686.723l20.157,11.689a2.435,2.435,0,0,0,2.2,0l57.841-33.348a.749.749,0,0,0,.33-.239.691.691,0,0,0,.125-.4.682.682,0,0,0-.125-.387.67.67,0,0,0-.33-.239l-20.157-11.689a2.436,2.436,0,0,0-2.2,0l-57.841,33.37a.708.708,0,0,0-.307.239.7.7,0,0,0,0,.762A.634.634,0,0,0,1004.321,2686.723Z" transform="translate(-196.136 -1721.634)" opacity="0.15"/>
    <path id="Path_36583" data-name="Path 36583" d="M1081.884,2662.2a.68.68,0,0,0-.137-.364.76.76,0,0,0-.307-.262l-18.017-10.4a2.393,2.393,0,0,0-1.081-.25,2.312,2.312,0,0,0-1.07.25l-55.018,31.812a.93.93,0,0,0-.307.25.882.882,0,0,0-.137.375v1.89a.881.881,0,0,0,.137.375.934.934,0,0,0,.307.251l18.028,10.4a2.436,2.436,0,0,0,2.151,0l55.007-31.731a.657.657,0,0,0,.307-.251.679.679,0,0,0,.137-.364Z" transform="translate(-195.872 -1721.762)" fill="#263238"/>
    <path id="Path_36584" data-name="Path 36584" d="M1024.282,2694.579l-18.028-10.357a.66.66,0,0,1-.319-.239.646.646,0,0,1-.125-.376.68.68,0,0,1,.125-.387.659.659,0,0,1,.319-.239l55.018-31.812a2.312,2.312,0,0,1,1.07-.25,2.393,2.393,0,0,1,1.081.25l18.017,10.4a.711.711,0,0,1,.33.239.67.67,0,0,1,.114.387.611.611,0,0,1-.114.375.641.641,0,0,1-.33.239l-55.007,31.766a2.341,2.341,0,0,1-2.151,0Z" transform="translate(-195.872 -1721.762)" fill="#37474f"/>
    <path id="Path_36585" data-name="Path 36585" d="M1025.282,2690.886v1.935a2.257,2.257,0,0,1-1.013-.25l-18.006-10.4a.732.732,0,0,1-.307-.25.753.753,0,0,1-.137-.375v-1.912a.752.752,0,0,0,.137.376.732.732,0,0,0,.307.25l18.006,10.369A2.435,2.435,0,0,0,1025.282,2690.886Z" transform="translate(-195.871 -1717.796)" fill="#263238"/>
    <path id="Path_36586" data-name="Path 36586" d="M1061.8,2652.58l1.787,1.024-2.413,1.412-1.855-1.047,2.424-1.388Zm2.8,1.616,1.776,1.036-1.889,1.093-1.81-1,1.912-1.1Zm-6.169.342h.045l1.787,1.024-1.9,1.1-1.844-1.024,1.889-1.1Zm8.98,1.263,1.787,1.036-3.084,1.775-1.844-1.036,3.084-1.775Zm-5.657.045,1.787,1.036-1.548.865-1.844-1.036,1.548-.865Zm-6.169.342h.034l1.787,1.024-1.9,1.1-1.844-1.036,1.9-1.092Zm3.7,1.092h.045l1.776,1.024-1.5.865-1.844-1.024,1.536-.876Zm10.926.148,1.776,1.024-2.367,1.411-1.844-1.047,2.424-1.388Zm-17.482.409,1.776,1.036-13.726,7.933-1.855-1.047,13.737-7.922Zm10.653.3h.034l1.8,1.036-1.548.865-1.844-1.036,1.536-.865Zm-6.567.569,1.787,1.024-1.537.876-1.855-1.036,1.548-.876Zm16.184.33,1.787,1.036-1.536.865-1.855-1.036,1.548-.876Zm-6.169.341h.045l1.776,1.036-1.536.865-1.844-1.036,1.536-.876Zm-5.918.193h.046l1.787,1.025-1.536.865-1.855-1.024,1.537-.876Zm-6.556.558,1.787,1.036-1.548.865-1.844-1.036,1.536-.865Zm16.173.33h.046l1.787,1.036-1.548.876-1.832-1.047,1.536-.865Zm-6.157.341h.034l1.787,1.036-1.536.865-1.855-1.035,1.548-.876Zm-5.918.193h.045l1.776,1.024-1.536.876-1.844-1.036,1.536-.876Zm17.948,0h.046l1.787,1.024-1.9,1.1-1.844-1.036,1.889-1.1Zm-24.516.558h.011l1.775,1.036-1.536.876-1.787-1.036,1.5-.876Zm16.184.342h0l1.787,1.024-1.548.876-1.775-1.036,1.536-.865Zm-6.169.33,1.787,1.036-1.536.876-1.787-1.024,1.548-.876Zm-5.907.193h.034l1.787,1.036-1.548.876-1.844-1.047,1.548-.865Zm-6.567.569,1.776,1.024-1.537.876-1.844-1.036,1.548-.876Zm23.048.285,1.787,1.024-1.536.876-1.855-1.036,1.548-.876Zm-6.863.045,1.787,1.036-1.548.865-1.844-1.036,1.536-.865Zm-6.169.342h.046l1.787,1.024-1.548.876-1.867-.99,1.536-.865Zm-5.907.193,1.787,1.024-1.536.876-1.855-1.047,1.537-.865Zm-6.567.558h.034l1.787,1.036-1.537.865-1.844-1.036,1.537-.865Zm23.047.285h.046l1.776,1.036-1.537.865-1.844-1.036,1.5-.876Zm-6.863.045h.034l1.787,1.036-1.536.865-1.855-1.024,1.548-.876Zm-6.169.353,1.787,1.024-1.536.865-1.855-1.036,1.548-.865Zm-5.918.182,1.787,1.036-1.536.865-1.844-1.059,1.5-.876Zm-6.567.569h.045l1.787,1.024-1.548.865-1.832-1.024,1.5-.876Zm23.059.273,1.775,1.036-1.536.876-1.844-1.047,1.548-.865Zm-6.875.057h.046l1.787,1.024-1.548.876-1.844-1.036,1.548-.876Zm-22.615.159h-.046l1.787,1.024-1.9,1.093-1.844-1.024,1.9-1.1Zm16.446.182h.034l1.787,1.024-1.537.876-1.855-1.036,1.548-.876Zm-5.907.182h.034l1.776,1.036-1.536.865-1.844-1.024,1.548-.876Zm-6.567.569,1.776,1.024-1.537.876-1.844-1.036,1.536-.876Zm23.048.284h.034l1.787,1.024-1.536.876-1.923-1.024,1.548-.876Zm-6.875.046,1.8,1.024-1.548.876-1.844-1.036,1.548-.865Zm-6.157.341h.046l1.776,1.036-1.536.865-1.844-1.035,1.548-.876Zm-16.833.045h.046l1.787,1.024-1.912,1.1-1.832-1.036,1.889-1.1Zm10.926.137,1.741,1.07-1.548.876-1.844-1.036,1.536-.865Zm-6.567.569h-.023l1.787,1.036-1.536.876-1.844-1.047,1.536-.865Zm16.185.342h-.023l1.787,1.024-1.536.876-1.855-1.047,1.548-.865Zm-6.169.33,1.787,1.036-1.536.876-1.844-1.047,1.536-.865Zm-5.918.193h.034l1.787,1.024-1.537.876-1.844-1.036,1.537-.865Zm17.88,0,1.787,1.036-1.548.865-1.832-1.036,1.536-.865Zm-29.182.045,1.775,1.024-1.889,1.092-1.855-1.036,1.9-1.092Zm4.735.478h.034l1.8,1.036-1.548.865-1.844-1.036,1.5-.865Zm16.184.33h.046l1.776,1.036-1.536.876-1.844-1.047,1.5-.865Zm-6.169.341h.046l1.787,1.036-1.548.865-1.844-1.036,1.536-.876Zm-5.918.193h.046l1.787,1.036-1.548.865-1.935-.99,1.548-.876Zm17.892.034h.034l1.787,1.036-1.536.876-1.855-1.047,1.548-.865Zm-29.581.273,1.787,1.024-2.424,1.4-1.844-1.036,2.413-1.388Zm5.122.262h.057l1.775,1.024-4.86,2.823-1.844-1.036,4.758-2.754Zm16.184.33h.046l1.776,1.024-1.536.876-1.844-1.047,1.536-.854Zm-6.157.33h.045l1.776,1.036-1.536.876-1.844-1.036,1.5-.876Zm-5.919.193h.046l1.787,1.036-1.548.876-1.844-1.047,1.536-.865Zm17.88.045h.034l1.787,1.024-1.537.876-1.946-.99,1.5-.865Zm-8.263.854h.045l1.787,1.036-1.548.865-1.844-1.036,1.537-.865Zm-22.74.239,1.787,1.024-1.548.865-1.844-1.024,1.537-.876Zm16.572.1h.034l1.787,1.024-1.548.876-1.832-1.035,1.536-.865Zm-5.918.193h.034l1.787,1.024-1.377.774a.327.327,0,0,0-.114.1.35.35,0,0,0-.034.148.26.26,0,0,0,.046.159.252.252,0,0,0,.114.1l2.311,1.354-1.776,1.024-4.621-2.652,3.6-2.072Zm17.88.034h.045l1.776,1.036-1.536.865-1.844-1.036,1.536-.865Zm-8.263.865,1.787,1.024-1.536.865-1.844-1.024,1.536-.876Zm-22.752.228h.045l1.787,1.024-1.594.944-1.844-1.036,1.5-.865Zm16.583.114h.034l1.787,1.024-1.536.865-1.855-1.036,1.548-.865Zm10.881.842h.045l1.787,1.036-1.548.865-1.832-1.036,1.5-.876Zm-7.182.239h.046l1.776,1.024-1.536.876-1.844-1.036,1.536-.876Zm-22.752.228h.046l1.776,1.036-1.536.876-1.844-1.047,1.548-.865Zm5.27.193h.034l1.787,1.025-1.548.876-1.832-1.047,1.536-.865Zm22.205.763h.034l1.775,1.035-1.536.876-1.923-.99,1.536-.876Zm-7.193.239H1041l1.787,1.024-2.675,1.548-1.855-1.036,2.686-1.537Zm-23.275.535h.046l1.787,1.036-3.984,2.311-1.844-1.047,3.972-2.311Zm16.321.25h.046l1.776,1.036-1.537.876-1.844-1.036,1.537-.876Zm11.666.41h.046l1.787,1.035-1.548.865-1.844-1.024,1.537-.876Zm-25.187.956h.034l1.787,1.024-1.548.876-1.832-1.036,1.536-.865Zm11.051.068h.034l1.787,1.024-1.548.876-1.832-1.036,1.536-.865Zm5.258.193,1.787,1.024-1.536.876-1.844-1.047,1.536-.865Zm6.408.216,1.787,1.024-1.536.865-1.844-1.036,1.536-.865Zm-30.457.763h.045l1.787,1.036-1.548.865-1.844-1.024,1.536-.876Zm5.27.193h.034l1.787,1.024-1.536.876-1.855-1.036,1.548-.876Zm11.051.068h.034l1.684,1.093-1.548.888-1.844-1.047,1.536-.865Zm-5.793.114h.046l1.787,1.024-1.548.876-1.844-1.036,1.5-.865Zm11.051.068h.034l1.787,1.036-1.536.876-1.844-1.047,1.536-.865Zm5.861.535h.046l1.775,1.024-1.536.876-1.844-1.036,1.536-.865Zm-29.911.455h.034l4.587,2.641-1.548.876-4.621-2.652,1.537-.876Zm5.258.182h.046l1.787,1.024-1.548.888-1.833-1.047,1.536-.865Zm5.27.193h.045l1.776,1.024-1.536.876-1.844-1.047,1.536-.865Zm11.051.068h.045l1.776,1.024-1.536.876-1.844-1.036,1.5-.876Zm-5.782.114h.034l1.787,1.036-1.548.865-1.912-.99,1.536-.876Zm11.643.41,1.787,1.035-1.536.876-1.855-1.047,1.548-.865Zm-19.383.831h.046l1.787,1.036-1.548.865-1.844-1.036,1.537-.876Zm5.27.182h.034l1.787,1.036-1.536.865-1.855-1.036,1.548-.876Zm5.179.25,1.787,1.036-1.548.876-1.844-1.047,1.537-.865Zm6.374.239h.046l1.787,1.036-1.548.865-1.844-1.036,1.5-.876Zm-19.383.819h.046l4.575,2.641-1.536.876-4.632-2.652,1.548-.865Zm5.27.182,1.787,1.036-1.548.876-1.753-1.07,1.548-.865Zm5.258.194h.046l1.787,1.024-1.548.876-1.844-1.036,1.548-.865Zm6.556.888.774.432-1.536.876-.831-.455,1.536-.865Zm-9.037.478h.034l1.776,1.024-1.536.876-1.844-1.036,1.548-.865Zm6.567.944h.046l.774.433-1.548.876-.819-.444,1.491-.876Zm-9.048.478h.045l1.787,1.036-1.548.865-1.844-1.036,1.536-.865Zm6.578.945h.046l.774.444-1.548.865-.819-.443,1.536-.865Zm-2.47,1.423.774.444-1.548.865-.831-.444,1.548-.865Z" transform="translate(-195.468 -1721.533)" fill="#bac7e5"/>
    <path id="Path_36587" data-name="Path 36587" d="M964.772,2667.226c.832,2.105,2.628,3.2,5.286,4.393,7.783,3.506,26.438,7.705,36.911,9.561,6.089,1.093,12.326,3.084,18.552,3.357,5.577.228,11.347-.774,15.98-3.915a3.452,3.452,0,0,0,1.491-1.628,2.611,2.611,0,0,0-.171-1.662,2.571,2.571,0,0,0-1.127-1.229,7.93,7.93,0,0,0-3.289-.865,134.2,134.2,0,0,1-36.076-9.561c5.175-.546,10.422-1.115,15.236-3.084s9.242-5.577,10.9-10.494a5.755,5.755,0,0,1,1.434-2.731,3.329,3.329,0,0,1,3.153-.3c3.38,1.218,4.723,5.178,5.725,8.627s2.663,7.386,6.157,8.183c-1.263-.774-.762-2.971.569-3.506a3.385,3.385,0,0,1,3.8,1.536c.819,1.241,1.024,2.652,1.707,3.9s2.128,2.322,3.448,1.8a3.263,3.263,0,0,0,1.548-1.65c1.855-3.642,1.537-8.138-.114-11.882a31.361,31.361,0,0,0-7.375-9.731c-4.12-3.938-8.764-7.466-14.1-9.469-11.177-4.2-23.742-1.15-34.812,3.323a144.662,144.662,0,0,0-23.957,12.372,40.493,40.493,0,0,0-7.891,6.158c-1.688,1.809-3.46,4.359-3.282,6.942A5.245,5.245,0,0,0,964.772,2667.226Z" transform="translate(-201.583 -1723.978)" opacity="0.1"/>
    <path id="Path_36588" data-name="Path 36588" d="M1054.564,2661.658c-1.627-2.527-4.564-7.705-5.474-8.775-2.5-2.845-7.671-7.352-7.671-7.352-4.871-3.972-19.827-17.175-19.827-17.175s-2.31-29.285-4.894-33.974c-2.993-5.452-8.684-5.679-14.568-6.032a116.3,116.3,0,0,0-2.141,11.563s5.294,32.836,5.92,35.886,2.185,4.393,5.338,6.419c4.814,3.084,22.239,12.451,22.239,12.451l.854.592a3.4,3.4,0,0,1,1.263,1.685,9.918,9.918,0,0,1,.455,2.071c.273,2.436,0,3.084.2,5.736s.774,2.572,1.81,4.837c.933,2.106,1.218,3.426,1.98,3.506s1.764-1.639,1.764-3.369-1.058-3.642-1.093-4.382.341-1.639,1.992-.672,3.187,3.927,4.416,5.964,1.878,4.746,3.118,6.215,1.707-.159,2.276-1.537,3.346-3.631,4.086-5.839S1056.181,2664.2,1054.564,2661.658Z" transform="translate(-196.676 -1730.406)" fill="#ffa8a7"/>
    <path id="Path_36589" data-name="Path 36589" d="M1001.967,2588.194c4.052,0,7.341-.444,10.915,1.73s4.53,5.145,5.338,9.765c.728,4.211,2.219,18.7,2.219,18.7s-10.3,5.679-19.269,2.049Z" transform="translate(-196.513 -1730.433)" fill="#455a64"/>
    <path id="Path_36590" data-name="Path 36590" d="M1009.364,2570.74a22.906,22.906,0,0,1,4.883,2.265,4.313,4.313,0,0,1,1.491,5.839l-1.855-.364s.956-2.185-.171-3.346-4.382-2.174-4.382-2.174Z" transform="translate(-195.386 -1732.839)" fill="#263238"/>
    <path id="Path_36591" data-name="Path 36591" d="M1014.742,2576.829c-1.537-.729-2.231.2-3.3,2.766s-.33,3.255.967,3.767,2.31-.342,3.084-2.47C1016.381,2578.513,1016.358,2577.626,1014.742,2576.829Z" transform="translate(-195.164 -1732.031)" fill="#407bff"/>
    <path id="Path_36592" data-name="Path 36592" d="M1014.852,2576.85c-1.548-.74-2.231.2-3.3,2.766s-.33,3.255.968,3.767,2.31-.353,3.084-2.47C1016.5,2578.534,1016.48,2577.646,1014.852,2576.85Z" transform="translate(-195.149 -1732.029)" opacity="0.1"/>
    <path id="Path_36593" data-name="Path 36593" d="M990.145,2590.052a144.222,144.222,0,0,0-24.412,7.591s-.546,29.216,4.185,43.147,3.367,29.831,3.367,29.831c23.117,3.733,51.153-7.011,50.459-18.666a52.059,52.059,0,0,0-3.892-7.011s-.58-9.356-.33-13.533c16.958-15.866-6.578-36.216-12.656-43.193C1003.167,2588.7,997.735,2588.357,990.145,2590.052Z" transform="translate(-201.411 -1730.425)" fill="#455a64"/>
    <path id="Path_36594" data-name="Path 36594" d="M990.947,2554.639c-1.095,1.969-.64,4.291-.193,6.373.347,1.582,1.3,3.551.895,5.156a10.436,10.436,0,0,1-3.854,5.531,11,11,0,0,1-1.456,1.036c-.439.239-.948.353-1.4.592a6.267,6.267,0,0,0-2.273,2.311,17.493,17.493,0,0,0-1.649,4.382,15.2,15.2,0,0,1-1.733,4.336,8.994,8.994,0,0,1-7.967,3.767,10.868,10.868,0,0,1-4.8-1.537,12.858,12.858,0,0,1-2.058-1.548,5.141,5.141,0,0,1-1.357-1.8,8.686,8.686,0,0,0,1.449,5.827,10.216,10.216,0,0,1-11.905-11.45c.278-1.98,1.118-3.858,1.541-5.782,1.171-5.235-3.529-8.1-4.3-12.873a7.413,7.413,0,0,1,3.776-7.557c1.61-.842,3.73-1.275,4.4-2.959.516-1.3-.116-2.731-.093-4.131,0-2.754,2.605-4.86,5.225-5.691s5.463-.831,8.106-1.616c2.82-.831,5.394-2.55,8.261-3.073a10.623,10.623,0,0,1,9.4,3.2c1.086,1.161,1.679,2.5,2.643,3.7s2.434,1.81,3.144,3.209a6.521,6.521,0,0,1,.828,2.959,6.431,6.431,0,0,1-.627,3C993.99,2551.85,991.948,2552.864,990.947,2554.639Z" transform="translate(-203.608 -1737.942)" fill="#263238"/>
    <path id="Path_36595" data-name="Path 36595" d="M1014.779,2560.1c-.33-9.162-5.657-22.251-25.355-20.578-19.2,1.639-24.85,18.768-23.117,28.067,2.443,12.838,11.782,13.658,14.21,22.058Z" transform="translate(-201.37 -1737.173)" fill="#28343b"/>
    <path id="Path_36596" data-name="Path 36596" d="M971.3,2565.5a4.622,4.622,0,0,1,4.823-1.6,4.776,4.776,0,0,1,2.373,1.536c.887.979.871,2.311,1.5,3.437a2.486,2.486,0,0,0,1.88,1.354c2.643.239,1.656-4.052,1.8-5.577,4.993-1.764,4.854-3.619,5.533-8.024,3.5-3.779,9.571-4.336,14.826-.717,3.2-6.169,6.684-5.395,8.187-3.494a24.8,24.8,0,0,1,2.242,7.17,47.29,47.29,0,0,1,.831,11.324c-.637,14.728-5.5,18.267-7.91,19.269s-5.4.273-9.846-.569v8.844c4.624,8.832,8.31,22.183,8.139,30.9-7.113-13.464-18.248-20.669-23.511-25.563a20.273,20.273,0,0,1-3.182-3.665v-23.241s-1.942,2.072-5.025-.376C969.838,2573.21,968.574,2568.589,971.3,2565.5Z" transform="translate(-200.839 -1735.56)" fill="#ffa8a7"/>
    <path id="Path_36597" data-name="Path 36597" d="M996,2586.224c-3.853-1-7.975-2.458-10.787-4.633a13.269,13.269,0,0,1-4.177-5.861s.331,5.679,3.19,8.24,11.8,5.509,11.8,5.509Z" transform="translate(-199.295 -1732.15)" fill="#f28f8f"/>
    <path id="Path_36605" data-name="Path 36605" d="M994.18,2587.43c2.974.865,11.666,12.622,14.489,16.856l-3.2,8.138a37.65,37.65,0,0,1,5.042,6.5l-6.5,18.916s.58-25.2-9.834-44.388Z" transform="translate(-197.479 -1730.534)" fill="#263238"/>
    <path id="Path_36606" data-name="Path 36606" d="M1005.866,2623.237c2.311,6.01,2.641,19.917,2.641,19.917s-2.322-12.975-13.236-17.528c0-.626.115-9.515.115-9.515s-14.64-3.71-17.722-5.11l-3.151-16.947s2.1-5.258,3.853-5.395v3.654a169.874,169.874,0,0,1,13.816,12.167C1000.164,2612.174,1003.567,2617.239,1005.866,2623.237Z" transform="translate(-200.196 -1730.364)" fill="#37474f"/>
    <path id="Path_36607" data-name="Path 36607" d="M1046.331,2681.98c-2.367-1.98-5.782-4.723-8.479-5.4a16.229,16.229,0,0,0-1.923-.432,20.006,20.006,0,0,0,2.686-.762,4.909,4.909,0,0,0,2.2-1.73c.194-.319.319-.774,0-1.013a.706.706,0,0,0-.4-.114c-1.992.1-3.585-.08-5.395-.057a7.993,7.993,0,0,0-2.436.239c-.717.273-1.445.558-2.151.865-3.221,1.411-6.169,2.7-10.915,1.992l-1.992-.523-33.422-17.22-6.342-34.52s-1.541-21.409-10.209-26.6c-4.624,1.753-9.687,6.1-11.058,10.778-1.618,5.577-.986,13.487,1.772,25.768,2.312,10.266,4.724,20.805,7.337,28.624s3.614,10.585,8.745,12.122c8.607,2.572,39.66,11.085,39.66,11.085a19.348,19.348,0,0,0,1.946.637,29.518,29.518,0,0,0,4.621,1.594c3.027.671,6.715-.717,9.242-1.07s6.988.478,9.447,1.252,5.008-3.13,6.237-2.777S1048.687,2683.96,1046.331,2681.98Z" transform="translate(-202.806 -1729.251)" fill="#ffa8a7"/>
    <path id="Path_36608" data-name="Path 36608" d="M1025.525,2665.471a9.042,9.042,0,0,0-3.585.887,20.1,20.1,0,0,1,4.8.433,20.056,20.056,0,0,0,2.686-.774,5.168,5.168,0,0,0,1.992-1.457C1030.032,2665.652,1027.266,2665.5,1025.525,2665.471Z" transform="translate(-193.643 -1719.878)" fill="#f28f8f"/>
    <path id="Path_36609" data-name="Path 36609" d="M967.228,2596.5c-5.987,2.561-9.955,5.691-11.558,12.281s-.47,12.372.879,19.349,4.507,18.3,4.507,18.3,12.814.774,20.2-4.348l-4.045-26.291s-2.135-15.615-9.579-19.053" transform="translate(-202.907 -1729.28)" fill="#455a64"/>
    <path id="Path_36610" data-name="Path 36610" d="M975.738,2542.758c-4.5,4.166-8.815,10.084-5.618,23.753a7.422,7.422,0,0,0-1.856,7.705c1.233,4.222,5.286,7.011,9.054,6.169s5.809-4.86,4.576-9.094c-.932-3.153-4.323-6.214-7.112-6.021,0,0-2.673-5.85-.17-14.136,3.421-11.3,16.591-12.235,22.385-11.324C995.056,2537.067,981.686,2537.25,975.738,2542.758Z" transform="translate(-201.113 -1737.352)" fill="#407bff"/>
    <path id="Path_36611" data-name="Path 36611" d="M975.738,2542.758c-4.5,4.166-8.815,10.084-5.618,23.753a7.422,7.422,0,0,0-1.856,7.705c1.233,4.222,5.286,7.011,9.054,6.169s5.809-4.86,4.576-9.094c-.932-3.153-4.323-6.214-7.112-6.021,0,0-2.673-5.85-.17-14.136,3.421-11.3,16.591-12.235,22.385-11.324C995.056,2537.067,981.686,2537.25,975.738,2542.758Z" transform="translate(-201.113 -1737.352)" fill="#2a83e8" opacity="0.4"/>
    <path id="Path_36612" data-name="Path 36612" d="M982.981,2567.982c-1.371-4.678-5.864-7.751-10.018-6.874a6.088,6.088,0,0,0-1.811.671c-.47.262-1.887,1.241-2.165,1.423-2.667,1.764-3.853,5.395-2.8,9.117,1.371,4.689,5.865,7.762,10.018,6.886a6.448,6.448,0,0,0,2.157-.876c.339-.216,1.665-1.1,1.988-1.332C982.9,2575.2,984.052,2571.659,982.981,2567.982Z" transform="translate(-201.398 -1734.191)" fill="#407bff"/>
    <path id="Path_36613" data-name="Path 36613" d="M982.981,2567.982c-1.371-4.678-5.864-7.751-10.018-6.874a6.088,6.088,0,0,0-1.811.671c-.47.262-1.887,1.241-2.165,1.423-2.667,1.764-3.853,5.395-2.8,9.117,1.371,4.689,5.865,7.762,10.018,6.886a6.448,6.448,0,0,0,2.157-.876c.339-.216,1.665-1.1,1.988-1.332C982.9,2575.2,984.052,2571.659,982.981,2567.982Z" transform="translate(-201.398 -1734.191)" opacity="0.3"/>
    <path id="Path_36614" data-name="Path 36614" d="M981.28,2568.993c-1.371-4.677-5.864-7.762-10.017-6.874s-6.442,5.395-5.071,10.072,5.864,7.751,10.017,6.875S982.651,2573.671,981.28,2568.993Z" transform="translate(-201.4 -1734.052)" fill="#407bff"/>
    <path id="Path_36616" data-name="Path 36616" d="M976.791,2569.282a4.3,4.3,0,0,0-4.739-3.244,3.556,3.556,0,0,0-2.4,4.746,4.325,4.325,0,0,0,4.739,3.244C976.359,2573.619,977.437,2571.479,976.791,2569.282Z" transform="translate(-200.895 -1733.499)" fill="#37474f"/>
    <path id="Path_36617" data-name="Path 36617" d="M1058.624,2720.074l-15.581-9.128a.773.773,0,0,1-.546-1.309.765.765,0,0,1,.546-.228l61.1-35.271a2.909,2.909,0,0,1,1.3-.319,2.837,2.837,0,0,1,1.3.319l15.558,9.048a.758.758,0,0,1,.421.273.746.746,0,0,1,.171.478.694.694,0,0,1-.171.467.706.706,0,0,1-.421.273l-61.084,35.408a2.815,2.815,0,0,1-1.286.308A2.844,2.844,0,0,1,1058.624,2720.074Z" transform="translate(-190.834 -1718.599)" opacity="0.1"/>
    <path id="Path_36618" data-name="Path 36618" d="M1115.019,2675.689l4.086-48.542a4.153,4.153,0,0,0-.432-2.06,4.206,4.206,0,0,0-1.377-1.582,4.756,4.756,0,0,0-2.094-.455,4.558,4.558,0,0,0-2.072.535l-61.028,35.237a5.452,5.452,0,0,0-1.582,1.6,5.179,5.179,0,0,0-.774,2.106l-4.086,48.553a4.252,4.252,0,0,0,.421,2.049,4.138,4.138,0,0,0,1.389,1.582,4.434,4.434,0,0,0,2.094.455,4.521,4.521,0,0,0,2.072-.535l61.028-35.2a5.268,5.268,0,0,0,1.593-1.616A5.431,5.431,0,0,0,1115.019,2675.689Z" transform="translate(-190.367 -1725.613)" fill="#263238"/>
    <path id="Path_36619" data-name="Path 36619" d="M1118.507,2627.132l-4.086,48.542,2.97-48.189c.1-1.366-.387-1.878-1.548-1.207l-60.276,34.839a4.9,4.9,0,0,0-1.548,1.582l-4.029-2.31a4.791,4.791,0,0,1,1.548-1.548l61.016-35.237a4.743,4.743,0,0,1,2.083-.523,4.464,4.464,0,0,1,2.094.455,4.133,4.133,0,0,1,1.776,3.6Z" transform="translate(-189.768 -1725.609)" fill="#37474f"/>
    <path id="Path_36620" data-name="Path 36620" d="M1049.2,2713.054l4.1-48.542a5.384,5.384,0,0,1,.762-2.117,5.453,5.453,0,0,1,1.582-1.6l60.288-34.884c1.184-.683,1.673-.16,1.537,1.206L1114.5,2675.3a5.383,5.383,0,0,1-.762,2.117,5.2,5.2,0,0,1-1.582,1.6l-61.028,35.237C1049.964,2714.978,1049.1,2714.42,1049.2,2713.054Z" transform="translate(-189.878 -1725.259)" fill="#455a64"/>
    <path id="Path_36621" data-name="Path 36621" d="M1075.6,2677.522l-.467,14.625,16.958-9.743-4.131-11.985Z" transform="translate(-186.295 -1719.069)" fill="#263238"/>
    <path id="Path_36622" data-name="Path 36622" d="M1077.964,2679.045l11.837-6.863-2.026-1.172-11.825,6.886Z" transform="translate(-186.182 -1718.987)" fill="#455a64"/>
    <path id="Path_36623" data-name="Path 36623" d="M1096.717,2692.574l-6.465-20.544-11.837,6.886-2-1.172,1.32,15.809.33,4.553.193.967-.865-.489-3.847-2.208a.619.619,0,0,0-.285-.1.53.53,0,0,0-.3.023.651.651,0,0,0-.216.25.593.593,0,0,0-.057.318v.341a2.066,2.066,0,0,0,.239.831,1.8,1.8,0,0,0,.6.637l6.328,3.653a1.815,1.815,0,0,0,.774.205,1.778,1.778,0,0,0,.911-.205l14.42-8.319a1.542,1.542,0,0,0,.592-.615A1.369,1.369,0,0,0,1096.717,2692.574Zm-9.094-1.764a2.446,2.446,0,0,1-2.345.262,2.41,2.41,0,0,1-.979-.706,2.65,2.65,0,0,1-.535-1.092,4.728,4.728,0,0,1,.273-2.857,4.793,4.793,0,0,1,1.844-2.185,2.443,2.443,0,0,1,1.138-.433,2.481,2.481,0,0,1,1.218.159,2.43,2.43,0,0,1,.979.717,2.5,2.5,0,0,1,.524,1.093,4.757,4.757,0,0,1-2.117,5.042Z" transform="translate(-186.633 -1718.846)" fill="#37474f"/>
    <path id="Path_36624" data-name="Path 36624" d="M1072.94,2693.7l4.917-2.834,1,6.612Z" transform="translate(-186.598 -1716.243)"/>
    <path id="Path_36625" data-name="Path 36625" d="M1078.413,2678.221l-2.014-1.161,1.662,20.339c.114.546-.194.774-.66.478l-3.847-2.208c-.478-.273-.854-.045-.854.5v.341a1.9,1.9,0,0,0,.82,1.468l6.351,3.665a1.985,1.985,0,0,0,.762.194Z" transform="translate(-186.631 -1718.151)" fill="#263238"/>
    <path id="Path_36626" data-name="Path 36626" d="M1086.2,2689.381a2.436,2.436,0,0,1-1.673.432,2.5,2.5,0,0,1-1.548-.774,2.79,2.79,0,0,0,1.8-.421,4.73,4.73,0,0,0,2.117-5.031,2.917,2.917,0,0,0-.637-1.218,2.468,2.468,0,0,1,1.332.66,2.606,2.606,0,0,1,.717,1.321,4.606,4.606,0,0,1-.262,2.845A4.741,4.741,0,0,1,1086.2,2689.381Z" transform="translate(-185.211 -1717.417)" fill="#263238"/>
    <path id="Path_36627" data-name="Path 36627" d="M1076.995,2661.6l-.774,9.356c-.057.614.285.91.774.637a2.182,2.182,0,0,0,.637-.694,1.956,1.956,0,0,0,.3-.9l.774-9.355c.057-.626-.285-.9-.774-.637a2.322,2.322,0,0,0-.637.694A2.268,2.268,0,0,0,1076.995,2661.6Z" transform="translate(-186.145 -1720.521)" fill="#407bff"/>
    <path id="Path_36628" data-name="Path 36628" d="M1079.665,2660.056l-.774,9.355c-.057.615.284.9.774.637a2.186,2.186,0,0,0,.637-.694,2.383,2.383,0,0,0,.3-.911l.774-9.355c.057-.615-.285-.9-.774-.626a2.188,2.188,0,0,0-.637.694A2.269,2.269,0,0,0,1079.665,2660.056Z" transform="translate(-185.777 -1720.735)" fill="#407bff"/>
    <path id="Path_36629" data-name="Path 36629" d="M1082.323,2658.505l-.762,9.367c-.057.615.284.9.762.637a2.228,2.228,0,0,0,.649-.695,2.384,2.384,0,0,0,.3-.91l.774-9.344c.046-.626-.284-.911-.774-.649a2.23,2.23,0,0,0-.637.706A2.123,2.123,0,0,0,1082.323,2658.505Z" transform="translate(-185.408 -1720.948)" fill="#407bff"/>
    <path id="Path_36630" data-name="Path 36630" d="M1084.994,2656.976l-.774,9.355c-.046.615.285.9.774.637a2.256,2.256,0,0,0,.945-1.6l.763-9.355c.057-.615-.285-.9-.763-.625a2.219,2.219,0,0,0-.649.694A2.271,2.271,0,0,0,1084.994,2656.976Z" transform="translate(-185.04 -1721.16)" fill="#407bff"/>
    <path id="Path_36631" data-name="Path 36631" d="M1049.186,2579.455c-4.928-5.1-7.842-25.825-3.027-29.865h24.5c4.814,4.04,1.912,24.766-3.016,29.854l-.137.136-.171.171q-.222.222-.444.41l-.114.091c-.125.091-.239.193-.375.284a7.527,7.527,0,0,1-.637.41,16.11,16.11,0,0,1-14.7,0c-.228-.125-.432-.262-.649-.41a3.134,3.134,0,0,1-.341-.273,1.815,1.815,0,0,1-.148-.114c-.046-.046-.3-.25-.432-.387l-.194-.194Z" transform="translate(-190.638 -1735.761)" fill="#407bff"/>
    <path id="Path_36632" data-name="Path 36632" d="M1049.186,2579.455c-4.928-5.1-7.842-25.825-3.027-29.865h24.5c4.814,4.04,1.912,24.766-3.016,29.854l-.137.136-.171.171q-.222.222-.444.41l-.114.091c-.125.091-.239.193-.375.284a7.527,7.527,0,0,1-.637.41,16.11,16.11,0,0,1-14.7,0c-.228-.125-.432-.262-.649-.41a3.134,3.134,0,0,1-.341-.273,1.815,1.815,0,0,1-.148-.114c-.046-.046-.3-.25-.432-.387l-.194-.194Z" transform="translate(-190.638 -1735.761)" opacity="0.3"/>
    <path id="Path_36633" data-name="Path 36633" d="M1068.486,2548.456c5.588,3.267,5.588,8.559,0,11.826s-14.637,3.255-20.248,0-5.577-8.559,0-11.826S1062.9,2545.223,1068.486,2548.456Z" transform="translate(-190.589 -1736.254)" fill="#407bff"/>
    <path id="Path_36634" data-name="Path 36634" d="M1068.486,2548.456c5.588,3.267,5.588,8.559,0,11.826s-14.637,3.255-20.248,0-5.577-8.559,0-11.826S1062.9,2545.223,1068.486,2548.456Z" transform="translate(-190.589 -1736.254)" opacity="0.1"/>
    <path id="Path_36635" data-name="Path 36635" d="M1065.337,2549.759c4.1,2.4,4.1,6.283,0,8.673a16.234,16.234,0,0,1-14.864,0c-4.086-2.39-4.109-6.271,0-8.673A16.234,16.234,0,0,1,1065.337,2549.759Z" transform="translate(-190.126 -1735.987)" fill="#455a64"/>
    <path id="Path_36636" data-name="Path 36636" d="M1050.4,2553.378a16.235,16.235,0,0,1,14.864,0,6.832,6.832,0,0,1,2.458,2.31,6.738,6.738,0,0,1-2.458,2.311,16.3,16.3,0,0,1-14.864,0,2.315,2.315,0,1,1,0-4.621Z" transform="translate(-190.052 -1735.486)" fill="#f5f5f5"/>
    <path id="Path_36637" data-name="Path 36637" d="M1070.848,2519.035l-9.8,6.692,9.253-3.506a16.915,16.915,0,0,1-1.833,7.125s-6.123,2.959-9.447,6.089l8.149-2.561a39.082,39.082,0,0,1-1.32,8.969,53.916,53.916,0,0,1-4.541,9.9,30.752,30.752,0,0,1-2.242,3.312,2.3,2.3,0,0,1-.159.194c-1.536-1-3.084-2-4.712-2.959-.945-2.413-1.981-8.251-2.174-12.986-.706-18.142,13.635-27.5,24.823-30.195A32.642,32.642,0,0,0,1070.848,2519.035Z" transform="translate(-189.491 -1741.354)" fill="#407bff"/>
    <path id="Path_36638" data-name="Path 36638" d="M1070.848,2519.035l-9.8,6.692,9.253-3.506a16.915,16.915,0,0,1-1.833,7.125s-6.123,2.959-9.447,6.089l8.149-2.561a39.082,39.082,0,0,1-1.32,8.969,53.916,53.916,0,0,1-4.541,9.9,30.752,30.752,0,0,1-2.242,3.312,2.3,2.3,0,0,1-.159.194c-1.536-1-3.084-2-4.712-2.959-.945-2.413-1.981-8.251-2.174-12.986-.706-18.142,13.635-27.5,24.823-30.195A32.642,32.642,0,0,0,1070.848,2519.035Z" transform="translate(-189.491 -1741.354)" opacity="0.2"/>
    <path id="Path_36639" data-name="Path 36639" d="M1062.593,2518a13.787,13.787,0,0,0-2.538,3.084,28.37,28.37,0,0,0-1.8,3.574,37.4,37.4,0,0,0-2.2,7.671,33.955,33.955,0,0,0,.865,15.775.236.236,0,0,1-.034.171.294.294,0,0,1-.148.114.332.332,0,0,1-.182-.012.225.225,0,0,1-.125-.125,34.142,34.142,0,0,1-.615-15.968,36.889,36.889,0,0,1,2.31-7.705,25.8,25.8,0,0,1,1.855-3.563A14.056,14.056,0,0,1,1062.593,2518Z" transform="translate(-189.055 -1740.125)" fill="#fafafa"/>
    <path id="Path_36640" data-name="Path 36640" d="M1030.41,2522.54a139.417,139.417,0,0,1,9.287,13.954l9.39,1.81-6.988,1,3.551,6.021,9.253,2.219-7.284.956s1.787,7.136,6.886,10.232c2.811,1.718,4.211,2.014,5.1,1.217.615-.546.854-3.938,1.445-6.931a23.235,23.235,0,0,0-1.878-13.965,18.5,18.5,0,0,0-2.845-4.451C1049.713,2526.74,1036.852,2522.654,1030.41,2522.54Z" transform="translate(-192.473 -1739.498)" fill="#407bff"/>
    <path id="Path_36641" data-name="Path 36641" d="M1030.41,2522.54a139.417,139.417,0,0,1,9.287,13.954l9.39,1.81-6.988,1,3.551,6.021,9.253,2.219-7.284.956s1.787,7.136,6.886,10.232c2.811,1.718,4.211,2.014,5.1,1.217.615-.546.854-3.938,1.445-6.931a23.235,23.235,0,0,0-1.878-13.965,18.5,18.5,0,0,0-2.845-4.451C1049.713,2526.74,1036.852,2522.654,1030.41,2522.54Z" transform="translate(-192.473 -1739.498)" fill="#fff" opacity="0.3"/>
    <path id="Path_36642" data-name="Path 36642" d="M1057.189,2542.14a28.845,28.845,0,0,1,1.935,7.865,85.215,85.215,0,0,1-.057,10.232,1.554,1.554,0,0,0,.535-.307c.615-.546.865-3.938,1.457-6.931a23.263,23.263,0,0,0-1.889-13.965,18.811,18.811,0,0,0-2.834-4.45c-6.635-7.865-19.5-11.939-25.916-12.053,9.8,1.924,20.191,8.8,25.187,16.572A19.254,19.254,0,0,1,1057.189,2542.14Z" transform="translate(-192.472 -1739.499)" opacity="0.1"/>
    <path id="Path_36643" data-name="Path 36643" d="M1039.02,2525.52a38.6,38.6,0,0,1,12.838,9.469,25.278,25.278,0,0,1,4.291,6.806,23.963,23.963,0,0,1,1.81,7.8,31.3,31.3,0,0,0-2.242-7.614,29.3,29.3,0,0,0-4.12-6.749,34.5,34.5,0,0,0-5.77-5.463,45.2,45.2,0,0,0-6.772-4.222S1039.009,2525.52,1039.02,2525.52Z" transform="translate(-191.284 -1739.086)" fill="#fafafa"/>
    <path id="Path_36644" data-name="Path 36644" d="M1085.488,2528.434a20.478,20.478,0,0,0-2.367,0,38.219,38.219,0,0,0-9.185,1.673c-1.115.353-2.219.774-3.312,1.2-.558.228-1.093.467-1.639.717a26.626,26.626,0,0,0-7.239,4.871,16.388,16.388,0,0,0-2.572,3.232l-.284.456c-.228.4-.433.774-.626,1.183a22.686,22.686,0,0,0-2.663,11.052c-.057,2.708.694,5.85,1.2,6.385a1.15,1.15,0,0,0,.228.182c.763.546,1.98.318,4.348-.831,4.735-2.31,6.931-8.718,6.931-8.718l-6.317-1.445,8.286-1.172,3.608-5.008-6.112-1.48,8.365-.774a125.641,125.641,0,0,1,9.31-11.5Z" transform="translate(-188.994 -1738.689)" fill="#407bff"/>
    <path id="Path_36645" data-name="Path 36645" d="M1083.087,2528.4a37.462,37.462,0,0,0-9.151,1.719c-1.115.342-2.219.763-3.312,1.2-.558.216-1.093.455-1.639.706a26.884,26.884,0,0,0-7.239,4.871,16.388,16.388,0,0,0-2.572,3.232l-.284.456c-.228.4-.433.774-.626,1.183a22.686,22.686,0,0,0-2.663,11.052c-.057,2.708.694,5.85,1.2,6.385a1.837,1.837,0,0,0,.228.193,1.462,1.462,0,0,0,.49.217c-.33-4.222,2.311-14.75,5.679-18.95,3.505-4.359,11.564-10.528,22.3-12.224A18.819,18.819,0,0,0,1083.087,2528.4Z" transform="translate(-188.994 -1738.692)" opacity="0.1"/>
    <path id="Path_36646" data-name="Path 36646" d="M1057.23,2559.316a35.62,35.62,0,0,1,1.115-9.242,29.794,29.794,0,0,1,3.563-8.627,21.161,21.161,0,0,1,3-3.6,31.25,31.25,0,0,1,3.6-3,34.45,34.45,0,0,1,8.286-4.336h0a45.345,45.345,0,0,0-7.967,4.723,38.075,38.075,0,0,0-3.551,2.948,20.291,20.291,0,0,0-3.016,3.46,30,30,0,0,0-3.665,8.479,36.212,36.212,0,0,0-1.309,9.174Z" transform="translate(-188.768 -1738.397)" fill="#fafafa"/>
    <path id="Path_36647" data-name="Path 36647" d="M1120.63,2612.54h7.83l-1.263,7.637a1.282,1.282,0,0,1-.273.558,1.52,1.52,0,0,1-.5.387,4.164,4.164,0,0,1-1.889.455,4.236,4.236,0,0,1-1.889-.455,1.48,1.48,0,0,1-.49-.387,1.531,1.531,0,0,1-.285-.558Z" transform="translate(-180.009 -1727.065)" fill="#fafafa"/>
    <path id="Path_36648" data-name="Path 36648" d="M1158.36,2592.33h7.83l-1.252,7.625a1.443,1.443,0,0,1-.285.558,1.375,1.375,0,0,1-.489.387,4.245,4.245,0,0,1-3.779,0,1.375,1.375,0,0,1-.489-.387,1.443,1.443,0,0,1-.285-.558Z" transform="translate(-174.797 -1729.857)" fill="#fafafa"/>
    <path id="Path_36649" data-name="Path 36649" d="M1069.73,2584.04h7.819l-1.252,7.625a1.281,1.281,0,0,1-.273.558,1.412,1.412,0,0,1-.489.376,4.082,4.082,0,0,1-3.79,0,1.233,1.233,0,0,1-.49-.376,1.444,1.444,0,0,1-.285-.558Z" transform="translate(-187.041 -1731.002)" fill="#fafafa"/>
    <path id="Path_36650" data-name="Path 36650" d="M1104.68,2563.7h7.819l-1.241,7.637a1.524,1.524,0,0,1-.285.558,1.341,1.341,0,0,1-.489.375,4.15,4.15,0,0,1-3.779,0,1.333,1.333,0,0,1-.774-.933Z" transform="translate(-182.213 -1733.812)" fill="#fafafa"/>
    <path id="Path_36651" data-name="Path 36651" d="M1064.26,2555.347v36.432a8.372,8.372,0,0,0,3.767,6.59l3.084,1.787h.057a8.615,8.615,0,0,0,4.735.82l46.425,24.561a8.485,8.485,0,0,0,1.161,3.574,8.592,8.592,0,0,0,2.583,2.731h.046l3.084,1.764a1.4,1.4,0,0,0,.285.159l.159.08h.046a8.578,8.578,0,0,0,5.884.262,3.855,3.855,0,0,0,.66-.239c.034-.011.068-.034.1-.045a2.752,2.752,0,0,0,.444-.228l44.7-25.722a8.435,8.435,0,0,0,3.79-6.567l.057-46.118v-17.493a8.48,8.48,0,0,0-3.79-6.579l-49.965-28.784a7.781,7.781,0,0,0-3.676-.842,7.7,7.7,0,0,0-3.642.968l-3.084,1.775a10.182,10.182,0,0,0-2.845,2.823,10.293,10.293,0,0,0-1.525,3.71l-2.971,19.52-2.754-1.582a8.189,8.189,0,0,0-8.252,0l-34.793,20.077a8.575,8.575,0,0,0-2.663,2.834A8.275,8.275,0,0,0,1064.26,2555.347Z" transform="translate(-187.797 -1742.407)" fill="#afb5bd"/>
    <path id="Path_36652" data-name="Path 36652" d="M1114.452,2504.233l3.073-1.775a7.877,7.877,0,0,1,7.33-.125l49.953,28.784c.216.136.455.307.387.25a8.622,8.622,0,0,1,3.358,5.691c-.273-1.946-1.855-2.652-3.745-1.548l-3.073,1.787a8.368,8.368,0,0,1-7.591,0l-49.692-28.659C1112.346,2507.443,1112.346,2505.439,1114.452,2504.233Z" transform="translate(-181.081 -1742.407)" fill="#bbc0cd"/>
    <path id="Path_36653" data-name="Path 36653" d="M1064.26,2552.179v36.432a8.372,8.372,0,0,0,3.767,6.59l3.084,1.787h.057a8.135,8.135,0,0,0,4.45.842,7.624,7.624,0,0,0,3.073-.865l35.123-20.259a8.324,8.324,0,0,0,2.686-2.834,8.466,8.466,0,0,0,1.1-3.733v-36.455a8.318,8.318,0,0,0-1.1-3.733,8.42,8.42,0,0,0-2.686-2.834l-2.743-1.582a8.189,8.189,0,0,0-8.252,0l-34.793,20.077a8.468,8.468,0,0,0-2.663,2.834A8.275,8.275,0,0,0,1064.26,2552.179Z" transform="translate(-187.797 -1739.239)" fill="#a4aab1"/>
    <path id="Path_36654" data-name="Path 36654" d="M1111.063,2525.521l2.754,1.594c2.094,1.207,2.094,3.175,0,4.37l-35.1,20.282a8.323,8.323,0,0,0-2.686,2.834,8.479,8.479,0,0,0-1.115,3.733v36.432c0,2.4-1.707,3.392-3.8,2.185l-3.084-1.787a8.389,8.389,0,0,1-3.79-6.556v-36.432a8.515,8.515,0,0,1,3.79-6.579l34.793-20.032a8.031,8.031,0,0,1,4.109-1.126A8.176,8.176,0,0,1,1111.063,2525.521Z" transform="translate(-187.8 -1739.236)" fill="#bbc0cd"/>
    <path id="Path_36655" data-name="Path 36655" d="M1074.916,2555.432v36.421c0,2.413-1.707,3.4-3.8,2.2l-3.084-1.787a8.614,8.614,0,0,1-2.675-2.834,8.434,8.434,0,0,1-1.115-3.733v-36.432a7.734,7.734,0,0,1,1.127-3.733l10.664,6.157A7.8,7.8,0,0,0,1074.916,2555.432Z" transform="translate(-187.8 -1736.322)" fill="#a4aab1"/>
    <path id="Path_36656" data-name="Path 36656" d="M1075.1,2592.59a8.874,8.874,0,0,0,1.389,2.083,15.784,15.784,0,0,0,3.562,2.492c13.339,7.705,22.968,13.248,36.307,20.953a4.153,4.153,0,0,0,1.889.444,4.235,4.235,0,0,0,1.9-.444l12.326-7.136,24.652-14.238a7.126,7.126,0,0,0,0-12.6l-13.976-8.047-10.664-6.169-11.6-6.67a8.368,8.368,0,0,0-7.592,0l-35.1,20.248a8.159,8.159,0,0,0-3.8,6.294A6.782,6.782,0,0,0,1075.1,2592.59Z" transform="translate(-186.398 -1733.998)" fill="#90969d"/>
    <path id="Path_36657" data-name="Path 36657" d="M1116.354,2606.967l-40.074-23.116c-1.036-.6-1.889-.114-1.889,1.093v3.858a4.209,4.209,0,0,0,1.889,3.278l40.074,23.116c1.047.6,1.889.114,1.889-1.093v-3.847a4.129,4.129,0,0,0-1.889-3.289Z" transform="translate(-186.398 -1731.064)" fill="#a4aab1"/>
    <path id="Path_36658" data-name="Path 36658" d="M1120.883,2546.732l36.273,20.919a8.349,8.349,0,0,1,2.675,2.823,8.522,8.522,0,0,1,1.115,3.745v7.705a8.436,8.436,0,0,1-3.79,6.567l-35.123,20.236a8.346,8.346,0,0,1-7.58,0l-36.273-20.919a8.35,8.35,0,0,1-2.675-2.823,8.521,8.521,0,0,1-1.115-3.733v-7.717a8.476,8.476,0,0,1,1.115-3.733,8.39,8.39,0,0,1,2.675-2.834l35.123-20.27a8.391,8.391,0,0,1,7.58.034Z" transform="translate(-186.398 -1736.283)" fill="#a4aab1"/>
    <path id="Path_36659" data-name="Path 36659" d="M1112.92,2590.525v16.435a7.587,7.587,0,0,0,3.79-.91l35.112-20.271a8.388,8.388,0,0,0,2.686-2.823,8.522,8.522,0,0,0,1.115-3.744v-7.705a8.79,8.79,0,0,0-1-3.54,8.449,8.449,0,0,0-2.413-2.777c1.7,1.218,1.548,3-.387,4.132l-35.112,20.27A7.853,7.853,0,0,1,1112.92,2590.525Z" transform="translate(-181.075 -1733.606)" fill="#90969d"/>
    <path id="Path_36660" data-name="Path 36660" d="M1114.212,2592.29l-36.273-20.919c-2.083-1.207-2.083-3.164,0-4.371l35.112-20.27a8.342,8.342,0,0,1,7.58,0l36.273,20.908c2.094,1.218,2.094,3.176,0,4.393l-35.112,20.259a8.342,8.342,0,0,1-7.58,0Z" transform="translate(-186.123 -1736.282)" fill="#bbc0cd"/>
    <path id="Path_36661" data-name="Path 36661" d="M1086.84,2588.555s2.925,9.367,2.811,12.964c-.125,3.744.683,5.053-.3,9.048-.2.876-.831,2.595-.99,3.312a.887.887,0,0,0-.057.455,1.013,1.013,0,0,0,.136.444.986.986,0,0,0,.319.33,1.072,1.072,0,0,0,.432.171c1.594.467,4.53-2.31,6.089-5.543a98.586,98.586,0,0,0,4.188-11.37,5.136,5.136,0,0,0-.3-2.652,8.33,8.33,0,0,0-.626-1.423c-.41-1.662-.4-4.769-.671-6.931Z" transform="translate(-184.678 -1730.543)" fill="#b16668"/>
    <path id="Path_36662" data-name="Path 36662" d="M1103.041,2600.24a4,4,0,0,1,.341,1.263c0,.762-1.912,3.073-2.652,3.892a5.983,5.983,0,0,0-1.537,4.12,10.338,10.338,0,0,1-3.05,6.419,16.383,16.383,0,0,1-8.57,4.632c-4.018.876-5.235-1.207-5.235-1.207s-1.07-1.992-.262-2.709S1103.041,2600.24,1103.041,2600.24Z" transform="translate(-185.377 -1728.764)" fill="#263238"/>
    <path id="Path_36663" data-name="Path 36663" d="M1099.269,2593.45c.114,0,.33,0,.6.4.114.148.672,1.969,1.184,2.948s1.935,2.868,2,4.382c-1.15,2.834-4.052,4.621-4.689,7.341s-.967,5.9-5.463,8.9-8.866,2.982-10.357,1.958-1.195-2.675,1.241-5.679c2.595-3.176,4.769-10.369,4.769-10.369a23.591,23.591,0,0,0,.66-3.084,19.8,19.8,0,0,0,0-3.073,2.456,2.456,0,0,1,.319-1.389,2.4,2.4,0,0,1,1.229-.706,10.643,10.643,0,0,1,2.231-.546,3.443,3.443,0,0,1,2.219.455c.421.353.854.694,1.309,1.013a2.085,2.085,0,0,0,1.081.194,2.052,2.052,0,0,0,1.024-.387,1.859,1.859,0,0,0,.66-.82,1.79,1.79,0,0,0,.068-1.036C1099.337,2593.78,1099.3,2593.609,1099.269,2593.45Z" transform="translate(-185.395 -1729.702)" fill="#455a64"/>
    <path id="Path_36664" data-name="Path 36664" d="M1095.618,2612.812a6.766,6.766,0,0,0-2.379-2.743,6.836,6.836,0,0,0-3.46-1.1c-4.484-.353-6.226,1.787-7.022,3.084-.945,1.537-2.037,4.348-.25,5.338,1.912,1.059,4.245.979,8.047-.535A9.7,9.7,0,0,0,1095.618,2612.812Z" transform="translate(-185.408 -1727.564)" fill="#fafafa"/>
    <path id="Path_36665" data-name="Path 36665" d="M1095.053,2600.6a.454.454,0,0,1-.216.023.567.567,0,0,1-.194-.068c-.66-.41-4.257-1.479-6.556.319-.262-.25-.171-.649.228-1.184a8.227,8.227,0,0,1,6.84.125.3.3,0,0,1,.125.114.4.4,0,0,1,.068.159.433.433,0,0,1,0,.171.4.4,0,0,1-.068.159A.507.507,0,0,1,1095.053,2600.6Z" transform="translate(-184.526 -1728.935)" fill="#fafafa"/>
    <path id="Path_36666" data-name="Path 36666" d="M1087.462,2603.12a1.4,1.4,0,0,1,.046-.648,1.541,1.541,0,0,1,.33-.558,8.4,8.4,0,0,1,6.5.284.4.4,0,0,1,.125.114.484.484,0,0,1,.068.159.432.432,0,0,1,0,.171.4.4,0,0,1-.068.159.453.453,0,0,1-.626.148C1093.187,2602.551,1089.773,2601.526,1087.462,2603.12Z" transform="translate(-184.594 -1728.605)" fill="#fafafa"/>
    <path id="Path_36667" data-name="Path 36667" d="M1085.41,2608.369a2.671,2.671,0,0,1,.717-1.582,8.319,8.319,0,0,1,6.726.182.3.3,0,0,1,.125.114.4.4,0,0,1,.068.159.486.486,0,0,1,0,.182.48.48,0,0,1-.068.159.486.486,0,0,1-.228.171.646.646,0,0,1-.2.034.544.544,0,0,1-.2-.068C1091.647,2607.288,1087.675,2606.116,1085.41,2608.369Z" transform="translate(-184.875 -1727.947)" fill="#fafafa"/>
    <path id="Path_36668" data-name="Path 36668" d="M1093.477,2605.36a.446.446,0,0,1-.2.046.416.416,0,0,1-.2-.046c-.66-.409-4.177-1.457-6.476.25a1.428,1.428,0,0,1,.08-.694,1.649,1.649,0,0,1,.4-.592,8.468,8.468,0,0,1,3.278-.523,8.566,8.566,0,0,1,3.232.808.43.43,0,0,1,.136.182.387.387,0,0,1,.034.228.464.464,0,0,1-.091.216.353.353,0,0,1-.182.136Z" transform="translate(-184.714 -1728.273)" fill="#fafafa"/>
    <path id="Path_36669" data-name="Path 36669" d="M1084.359,2597.89s-2.766,10.9-5.167,15.012-3.619,6.112-6.7,9.116c-.671.649-2.174,1.844-2.72,2.379a1.059,1.059,0,0,0-.3.376,1.164,1.164,0,0,0-.1.478,1.114,1.114,0,0,0,.1.467,1.1,1.1,0,0,0,.3.387c1.15,1.3,6.419,2.026,9.572.057s6.26-6.488,8.172-8.126c.728-.615,1.4-1.241,2.071-1.924s.524-1.343.649-2.117c.046-.387.08-1.423.08-1.423.558-1.833,1.912-4.632,2.641-6.419Z" transform="translate(-187.091 -1729.089)" fill="#b16668"/>
    <path id="Path_36670" data-name="Path 36670" d="M1091.435,2618.2a4.184,4.184,0,0,1-.25,1.343c-.353.694-3.175,2.026-4.245,2.493a6.292,6.292,0,0,0-3.289,3.209,10.772,10.772,0,0,1-5.748,4.712,17.11,17.11,0,0,1-10.186.558c-4.2-.979-4.416-3.483-4.416-3.483s-.114-2.356.967-2.686S1091.435,2618.2,1091.435,2618.2Z" transform="translate(-187.93 -1726.282)" fill="#263238"/>
    <path id="Path_36671" data-name="Path 36671" d="M1091.254,2610.6c.114.057.33.148.41.637a31.423,31.423,0,0,0-.193,3.323c.057,1.15.535,3.574-.068,5.042-2.356,2.174-5.907,2.572-7.705,4.848s-3.54,5.156-9.151,5.987-9.72-1.138-10.664-2.766.046-3.084,3.7-4.826c3.858-1.855,9.139-7.705,9.151-7.705a24.734,24.734,0,0,0,2-2.606,23.075,23.075,0,0,0,1.366-2.948,2.382,2.382,0,0,1,.911-1.172,2.522,2.522,0,0,1,1.479-.114,10.572,10.572,0,0,1,2.356.478,3.632,3.632,0,0,1,1.889,1.423c.3.489.444,1.081.762,1.537a2.211,2.211,0,0,0,.933.683,2.088,2.088,0,0,0,1.15.091,1.822,1.822,0,0,0,1-.467,1.8,1.8,0,0,0,.546-.968C1091.174,2610.915,1091.22,2610.756,1091.254,2610.6Z" transform="translate(-187.896 -1727.659)" fill="#455a64"/>
    <path id="Path_36672" data-name="Path 36672" d="M1078.236,2627.629a7.047,7.047,0,0,0-3.813-6.226c-4.086-2.356-6.681-1.093-8.012-.228-1.582,1.024-3.847,3.2-2.629,4.928,1.343,1.866,3.6,2.834,7.865,3.084A10.163,10.163,0,0,0,1078.236,2627.629Z" transform="translate(-187.911 -1726.026)" fill="#fafafa"/>
    <path id="Path_36673" data-name="Path 36673" d="M1082.83,2616.02a.689.689,0,0,1-.216-.068.654.654,0,0,1-.159-.148c-.432-.683-3.369-3.312-6.351-2.641-.125-.342.137-.683.774-1.013a8.6,8.6,0,0,1,6.419,3.164.541.541,0,0,1,.068.171.477.477,0,0,1-.011.182.57.57,0,0,1-.08.17.455.455,0,0,1-.137.114A.491.491,0,0,1,1082.83,2616.02Z" transform="translate(-186.165 -1727.119)" fill="#fafafa"/>
    <path id="Path_36674" data-name="Path 36674" d="M1074.53,2615.029a1.524,1.524,0,0,1,.33-.592,1.489,1.489,0,0,1,.558-.387,8.835,8.835,0,0,1,3.335.99,8.949,8.949,0,0,1,2.7,2.186.5.5,0,0,1,.057.171.489.489,0,0,1,0,.182,1.143,1.143,0,0,1-.08.171.713.713,0,0,1-.148.114.425.425,0,0,1-.353.057.482.482,0,0,1-.307-.2C1080.2,2617.054,1077.421,2614.562,1074.53,2615.029Z" transform="translate(-186.378 -1726.856)" fill="#fafafa"/>
    <path id="Path_36675" data-name="Path 36675" d="M1070.27,2619.053a2.75,2.75,0,0,1,1.377-1.183,8.615,8.615,0,0,1,6.283,3.187.539.539,0,0,1,.068.171.5.5,0,0,1,0,.182.7.7,0,0,1-.08.159.491.491,0,0,1-.136.125.531.531,0,0,1-.3.057.34.34,0,0,1-.2-.068.336.336,0,0,1-.159-.148C1076.644,2620.829,1073.446,2617.927,1070.27,2619.053Z" transform="translate(-186.967 -1726.328)" fill="#fafafa"/>
    <path id="Path_36676" data-name="Path 36676" d="M1079.213,2619.841a.341.341,0,0,1-.2-.068.4.4,0,0,1-.159-.148c-.444-.683-3.312-3.244-6.248-2.651a1.592,1.592,0,0,1,.4-.626,1.8,1.8,0,0,1,.626-.387,8.775,8.775,0,0,1,3.335.99,9,9,0,0,1,2.709,2.185.508.508,0,0,1,.057.171.491.491,0,0,1,0,.182.574.574,0,0,1-.08.17.335.335,0,0,1-.136.114A.464.464,0,0,1,1079.213,2619.841Z" transform="translate(-186.645 -1726.592)" fill="#fafafa"/>
    <path id="Path_36677" data-name="Path 36677" d="M1112.366,2544.39c-4.814,2.937-21.363,10.722-28.272,16.116-1.992,1.536-2.8,3.756-2.754,8.718.057,6.727,3.38,29.9,3.38,29.9.615,1.354,2.083-.979,2.083-.979l27.691-29.637Z" transform="translate(-185.438 -1736.479)" fill="#407bff"/>
    <path id="Path_36678" data-name="Path 36678" d="M1112.366,2544.39c-4.814,2.937-21.363,10.722-28.272,16.116-1.992,1.536-2.8,3.756-2.754,8.718.057,6.727,3.38,29.9,3.38,29.9.615,1.354,2.083-.979,2.083-.979l27.691-29.637Z" transform="translate(-185.438 -1736.479)" opacity="0.3"/>
    <path id="Path_36679" data-name="Path 36679" d="M1085.79,2591.461c6.157-4.336,27.372-32.255,27.372-32.255-2.367-2.368-3.084-9.936-3.084-9.936-1.241,2.788-.546,7.216.1,8.866-1.582,1.149-10.471,7.3-16.64,11.381a8.258,8.258,0,0,0-3.847,4.883C1087.987,2580.546,1085.767,2590.186,1085.79,2591.461Z" transform="translate(-184.823 -1735.805)" opacity="0.3"/>
    <path id="Path_36680" data-name="Path 36680" d="M1112.413,2544.39l31.6,9.845c-2.06,5.782-2.777,8.786-4.678,11.768s-4.018,6.157-12.725,9.572c-8.4,3.289-18.6,6.544-20.646,7.318-1.548.581-2.5,3.494-3.505,7.284-1.036,3.972-1.366,7.136-6.078,15.262-4.621,7.967-5.554,9.7-5.554,9.7s-6.1.114-9.822-3.756c0,0,7.876-27.987,9.481-33.006.888-2.8,1.024-4.3,4.837-7.148,3.278-2.447,17.732-11.563,17.732-11.563S1108.27,2551.936,1112.413,2544.39Z" transform="translate(-185.484 -1736.479)" fill="#407bff"/>
    <path id="Path_36681" data-name="Path 36681" d="M1112.413,2544.39l31.6,9.845c-2.06,5.782-2.777,8.786-4.678,11.768s-4.018,6.157-12.725,9.572c-8.4,3.289-18.6,6.544-20.646,7.318-1.548.581-2.5,3.494-3.505,7.284-1.036,3.972-1.366,7.136-6.078,15.262-4.621,7.967-5.554,9.7-5.554,9.7s-6.1.114-9.822-3.756c0,0,7.876-27.987,9.481-33.006.888-2.8,1.024-4.3,4.837-7.148,3.278-2.447,17.732-11.563,17.732-11.563S1108.27,2551.936,1112.413,2544.39Z" transform="translate(-185.484 -1736.479)" opacity="0.3"/>
    <path id="Path_36682" data-name="Path 36682" d="M1112.724,2507.311c-.6-.364-.876-4.428-.228-7.318s-.694-3.608-1.354-2.7a4.642,4.642,0,0,0-.819,1.685,8.1,8.1,0,0,0-3.779,2.015c-1.616,1.6-3.528,3.574-2.971,7.864a11.023,11.023,0,0,1-.3,4.268c-2.31,6.306-10.516,14.193-12.372,22.6-1.707,7.705,4.325,8.468,9.595,6.157,6.055-2.72,17.664-13.021,17.664-13.021l5.031-16.878c-3.2,0-5.577.512-9.822,4.621-.717.683-3.665,3.21-3.665,3.21a35.276,35.276,0,0,1,3.016-5.918" transform="translate(-184.157 -1743.037)" fill="#b16668"/>
    <path id="Path_36683" data-name="Path 36683" d="M1104,2526.77a37.1,37.1,0,0,1-3.084,5.588,11.036,11.036,0,0,0,3.949-4.621Z" transform="translate(-182.732 -1738.914)" fill="#9a4a4d"/>
    <path id="Path_36684" data-name="Path 36684" d="M1122.091,2510.16c-3.471-.318-6.271.217-8.991,2.846-2.5,2.424-5.19,4.985-5.19,4.985-1.8,4.177-3.084,8.229-4.28,11.086a15.126,15.126,0,0,0,3.221,6.066l14.045-11.291Z" transform="translate(-182.358 -1741.22)" fill="#fafafa"/>
    <path id="Path_36685" data-name="Path 36685" d="M1109.328,2510.779a2.6,2.6,0,0,0-.455-3.039l2.311-1.548v-.091l-9.242-.421a11.539,11.539,0,0,0,.08,1.98,13.111,13.111,0,0,1,.08,2l1.2.717a.881.881,0,0,0,.865,0l3.892-2.015C1109.385,2508.935,1109.328,2510.779,1109.328,2510.779Z" transform="translate(-182.593 -1741.827)" fill="#9a4a4d"/>
    <path id="Path_36686" data-name="Path 36686" d="M1102.015,2499.781l16.184-7.637a.9.9,0,0,1,.455-.114.933.933,0,0,1,.455.114c.193.137,1.024.649,1.263.774a.95.95,0,0,1,.307.33.979.979,0,0,1,.1.444l.524,8.377a1.983,1.983,0,0,1-.307,1.07,2,2,0,0,1-.808.762l-16.185,7.637a.885.885,0,0,1-.421.1.965.965,0,0,1-.432-.1c-.228-.136-1.127-.683-1.366-.842a.841.841,0,0,1-.262-.307.971.971,0,0,1-.091-.4c-.137-2.106-.4-6.271-.535-8.377a1.983,1.983,0,0,1,.307-1.07A2.168,2.168,0,0,1,1102.015,2499.781Z" transform="translate(-182.735 -1743.713)" fill="#37474f"/>
    <path id="Path_36687" data-name="Path 36687" d="M1119.842,2502.078a1.081,1.081,0,0,1-.159.523,1.051,1.051,0,0,1-.387.387l-15.319,7.239v.364l-.626-8.912a1.223,1.223,0,0,1,.159-.524,1.147,1.147,0,0,1,.4-.376l15.65-7.42-.341.159Z" transform="translate(-182.397 -1743.529)" fill="#407bff"/>
    <path id="Path_36688" data-name="Path 36688" d="M1119.842,2502.078a1.081,1.081,0,0,1-.159.523,1.051,1.051,0,0,1-.387.387l-15.319,7.239v.364l-.626-8.912a1.223,1.223,0,0,1,.159-.524,1.147,1.147,0,0,1,.4-.376l15.65-7.42-.341.159Z" transform="translate(-182.397 -1743.529)" fill="#fff" opacity="0.75"/>
    <path id="Path_36689" data-name="Path 36689" d="M1120.15,2502.281a1.1,1.1,0,0,1-.171.524,1.051,1.051,0,0,1-.387.387l-15.672,7.409v-.376l15.319-7.239a1.05,1.05,0,0,0,.387-.387.973.973,0,0,0,.159-.523l-.592-8.548.33-.159Z" transform="translate(-182.318 -1743.528)" fill="#263238"/>
    <path id="Path_36690" data-name="Path 36690" d="M1103.2,2510.577h-.046c-.228-.136-1.127-.694-1.366-.842a.877.877,0,0,1-.262-.319.92.92,0,0,1-.091-.387c-.137-2.106-.4-6.283-.535-8.377a2.044,2.044,0,0,1,.569-1.423l1.32.774a1.948,1.948,0,0,0-.569,1.423l.523,8.388a.89.89,0,0,0,.114.444A1.012,1.012,0,0,0,1103.2,2510.577Z" transform="translate(-182.735 -1742.719)" fill="#263238"/>
    <path id="Path_36691" data-name="Path 36691" d="M1120.3,2492.918a1.024,1.024,0,0,0-.41-.091,1.077,1.077,0,0,0-.421.091l-16.185,7.648a1.7,1.7,0,0,0-.546.4l-1.32-.774a1.815,1.815,0,0,1,.558-.41l16.173-7.637a.97.97,0,0,1,.911,0A12.02,12.02,0,0,0,1120.3,2492.918Z" transform="translate(-182.663 -1743.713)" fill="#455a64"/>
    <path id="Path_36692" data-name="Path 36692" d="M1103.079,2504.224a.661.661,0,0,0-.239.228.634.634,0,0,0-.08.319.225.225,0,0,0,.023.125.174.174,0,0,0,.091.091.246.246,0,0,0,.25,0,.652.652,0,0,0,.228-.239.612.612,0,0,0,.091-.319.3.3,0,0,0-.034-.125.231.231,0,0,0-.091-.091.158.158,0,0,0-.125-.023A.22.22,0,0,0,1103.079,2504.224Z" transform="translate(-182.478 -1742.034)" opacity="0.35"/>
    <path id="Path_36693" data-name="Path 36693" d="M1110.319,2506.491c.489-.4.671-1.662,1.491-2.788.956-1.309,3.164-.968,2.47.091s-.922,2-1.423,4.7-1.582,3.084-2.777,4.621v-6.476Z" transform="translate(-181.467 -1742.218)" fill="#b16668"/>
    <path id="Path_36694" data-name="Path 36694" d="M1132.995,2511.436c2.652.706,11.245,4.1,11.245,4.1,1.855,1.446,1.07,4.621,1.047,8.263-.717,26.428-5.3,38.208-5.3,38.208-10.334,2.265-29.216-4.314-32.733-12.2,3.153-4.8,5.281-11.973,5.736-26.064.33-10.448,5.076-13.612,8.161-13.59A51.23,51.23,0,0,1,1132.995,2511.436Z" transform="translate(-181.858 -1741.21)" fill="#fafafa"/>
    <path id="Path_36695" data-name="Path 36695" d="M1118.553,2493.961a3.66,3.66,0,0,0,0-1.855c-.182-.649-.432-1.286-.592-1.946-.2-.876-.444-1.764-.706-2.64a12.532,12.532,0,0,1-.865-3.756,2.295,2.295,0,0,1,.637-1.673,2.359,2.359,0,0,1,1.07-.489,2.326,2.326,0,0,1,1.184.114,6.877,6.877,0,0,1,2.037,1.218,4.246,4.246,0,0,1,.774-2.652,2.528,2.528,0,0,1,1.1-.842,2.585,2.585,0,0,1,1.377-.1,6.576,6.576,0,0,1,2.151,1.593,11.256,11.256,0,0,0,4.518,1.81,11.278,11.278,0,0,1,4.587,1.958,7.163,7.163,0,0,1,2.709,5.395c0,.763-.319,2.675-.444,3.688-.193,1.537-.353,3.084-.6,4.564-1.264,7.705-3.779,13.3-11.552,12.736-2.959-.228-7.091-2.06-7.865-5.281a11.884,11.884,0,0,1-.148-1.684c-.08-1.138-.1-2.311-.08-3.4A40.638,40.638,0,0,1,1118.553,2493.961Z" transform="translate(-180.595 -1745.474)" fill="#263238"/>
    <path id="Path_36696" data-name="Path 36696" d="M1136.661,2488.8a2.855,2.855,0,0,1,2.31,2c.683,1.7,1,4.37-.66,8.468a35.133,35.133,0,0,1-4.1,7.341c-.683,1.161-1.775,3.346-1.775,3.346l.489-5.11.432-3.551s-2.185-.5-2.823-4.052c-.717-3.995.046-4.5.046-4.5Z" transform="translate(-178.683 -1744.159)" fill="#263238"/>
    <path id="Path_36697" data-name="Path 36697" d="M1135.283,2500.969a.817.817,0,0,0,.432.08.925.925,0,0,0,.41-.136c.706-.421,1.036-1.309,1.639-1.844a2.548,2.548,0,0,1,4.2,1c.99,2.538-1.5,5.884-3.323,6.578a2.745,2.745,0,0,1-3.642-1.673l-1.036,10.79c-3.084,4.712-6.385,5.087-9.549,4.871s-2.914-3.164-.888-5.179l.262-3.517a20.371,20.371,0,0,1-4.325-.091c-2.311-.546-3.426-2.4-3.95-5.008a34.162,34.162,0,0,1-.375-9.139,38.377,38.377,0,0,1,1.776-8.3s1.343-1.218,5.235-1.275c2.743,0,6.214-.228,7.66,1.491a3.867,3.867,0,0,0,.922,2.072,4.1,4.1,0,0,0,1.923,1.218C1131.823,2498.42,1134.817,2500.776,1135.283,2500.969Z" transform="translate(-180.789 -1744.253)" fill="#b16668"/>
    <path id="Path_36698" data-name="Path 36698" d="M1130.139,2491.009c-.569-1.047-2.595-1.537-3.767-1.366a27.9,27.9,0,0,0-4.746,1.457,11.136,11.136,0,0,1-3.562.592,6.384,6.384,0,0,1-3.312-.842,3.882,3.882,0,0,1-1.081-1.309,3.969,3.969,0,0,1-.41-1.65,3.892,3.892,0,0,1,.33-1.65,3.694,3.694,0,0,1,1-1.354,1.565,1.565,0,0,0,.228.74,1.512,1.512,0,0,0,.546.558,4.689,4.689,0,0,0,1.457.546,2.774,2.774,0,0,1-.842-1.218,2.855,2.855,0,0,1-.125-1.479,3.66,3.66,0,0,1,.808-1.525,3.846,3.846,0,0,1,1.4-1.013c.933-.262,2-.535,4.052,1.161S1131.129,2485.363,1130.139,2491.009Z" transform="translate(-181.028 -1745.195)" fill="#263238"/>
    <path id="Path_36699" data-name="Path 36699" d="M1122.732,2509.488s5.327-.672,7.239-1.537a6.129,6.129,0,0,0,2.72-2.322,8.188,8.188,0,0,1-1.662,2.857c-1.468,1.616-8.4,2.368-8.4,2.368Z" transform="translate(-179.733 -1741.834)" fill="#9a4a4d"/>
    <path id="Path_36707" data-name="Path 36707" d="M1124.65,2627.39v-36.432a8.535,8.535,0,0,1,3.8-6.579l35.157-20.281a2.512,2.512,0,0,0,1.241-2.174,2.5,2.5,0,0,0-.33-1.24,2.526,2.526,0,0,0-.911-.922l-.865-.489,2.982-19.52a10.106,10.106,0,0,1,4.37-6.533l3.084-1.787c2.083-1.207,3.79-.217,3.79,2.2v17.527l-.08,46.129a8.331,8.331,0,0,1-1.115,3.733,8.492,8.492,0,0,1-2.675,2.834l-44.7,25.722C1126.369,2630.781,1124.65,2629.792,1124.65,2627.39Z" transform="translate(-179.454 -1738.341)" fill="#90969d"/>
    <path id="Path_36708" data-name="Path 36708" d="M1115.28,2581.616V2618.3a8.485,8.485,0,0,0,1.161,3.574,8.592,8.592,0,0,0,2.583,2.731h.046l3.084,1.764a1.4,1.4,0,0,0,.285.159l.159.08h.046a3,3,0,0,0,.3.114,8.857,8.857,0,0,0,5.588.148c.216-.068.444-.148.66-.239-1.832.774-3.244-.273-3.244-2.458v-36.387a8.432,8.432,0,0,1,3.79-6.579l6.886-3.972,28.272-16.31a2.527,2.527,0,0,0,.911-.922,2.446,2.446,0,0,0,0-2.493,2.527,2.527,0,0,0-.911-.922l-3.13-1.81a8.461,8.461,0,0,0-7.592,0l-28.226,16.321-6.863,3.972a8.241,8.241,0,0,0-2.675,2.823A8.442,8.442,0,0,0,1115.28,2581.616Z" transform="translate(-180.748 -1735.168)" fill="#bbc0cd"/>
    <path id="Path_36709" data-name="Path 36709" d="M1125.943,2584.872v36.421c0,2.185,1.423,3.21,3.255,2.458a6.787,6.787,0,0,1-.672.239,8.748,8.748,0,0,1-5.577-.159,1.328,1.328,0,0,1-.3-.114h-.046l-.171-.08a1.723,1.723,0,0,1-.285-.148l-3.073-1.776h-.046a8.429,8.429,0,0,1-2.583-2.72,8.534,8.534,0,0,1-1.161-3.585V2578.7a7.723,7.723,0,0,1,1.115-3.733l10.664,6.157A7.866,7.866,0,0,0,1125.943,2584.872Z" transform="translate(-180.747 -1732.255)" fill="#a4aab1"/>
    <path id="Path_36710" data-name="Path 36710" d="M1157.593,2551.712c-1.024-8.024-1.878-12.2-2.937-17.584-2.458-12.5-1.878-16.093-10.915-18.438,0,0-3.278,2.879-3.414,10.278-.1,5.588,1.548,8.661,1.548,8.661l3.847,18.495c-3.335,3.073-11.894,9.8-13.977,10.9-2.811,1.491-5.93,2.072-8.934,3.073-2,.694-3.858,1.548-5.816,2.367a.688.688,0,0,0-.3.159.564.564,0,0,0-.148.3.579.579,0,0,0,.034.341,1.078,1.078,0,0,0,.444.512,3.525,3.525,0,0,0,1.571.592,3.742,3.742,0,0,0,1.662-.148,10.217,10.217,0,0,1,2.788-.66c.2,0,.432.057.353.319a2.176,2.176,0,0,1-.33.49,7.484,7.484,0,0,1-3.039,1.468,12.485,12.485,0,0,1-3.244.467,12.713,12.713,0,0,0-2.629.171,2.131,2.131,0,0,0-.774.33c-1.195.933.706,1.65,1.093,2.311.193.341.546.945.762,1.263a2.479,2.479,0,0,0,.933.58,11.848,11.848,0,0,1,1.241.9,6.1,6.1,0,0,0,3.414.888,19.367,19.367,0,0,0,3.027-.319,12.933,12.933,0,0,0,5.873-2.276,19.328,19.328,0,0,0,2-1.866c.535-.558,1.07-1.138,1.639-1.673a35.939,35.939,0,0,1,2.982-2.265,167.038,167.038,0,0,0,18.757-10.972C1158.9,2557.722,1158.048,2555.229,1157.593,2551.712Z" transform="translate(-181.064 -1740.445)" fill="#b16668"/>
    <path id="Path_36711" data-name="Path 36711" d="M1140.235,2514.85c6.408,2.083,8.149,4.78,8.752,6.829.888,2.959,1.548,6.316,2.606,11.313,1.548,7.455,1.821,10.4,1.821,10.4s-3.528,2.857-12.7,2.743l-3.084-12.121S1133.167,2523.4,1140.235,2514.85Z" transform="translate(-177.853 -1740.561)" fill="#fafafa"/>
    <path id="Path_36713" data-name="Path 36713" d="M1097.767,2499.709v-19.77a1.227,1.227,0,0,0-.171-.558,1.2,1.2,0,0,0-.4-.433l-28.169-16.23c-.307-.182-.569-.034-.569.33v19.713a1.23,1.23,0,0,0,.171.558,1.09,1.09,0,0,0,.4.421l28.169,16.276C1097.517,2500.2,1097.767,2500.062,1097.767,2499.709Z" transform="translate(-187.217 -1747.773)" fill="#407bff"/>
    <path id="Path_36714" data-name="Path 36714" d="M1097.767,2499.709v-19.77a1.227,1.227,0,0,0-.171-.558,1.2,1.2,0,0,0-.4-.433l-28.169-16.23c-.307-.182-.569-.034-.569.33v19.713a1.23,1.23,0,0,0,.171.558,1.09,1.09,0,0,0,.4.421l28.169,16.276C1097.517,2500.2,1097.767,2500.062,1097.767,2499.709Z" transform="translate(-187.217 -1747.773)" fill="#fcbf02"/>
    <path id="Path_36715" data-name="Path 36715" d="M1093.71,2498.206a1.269,1.269,0,0,0,.569.137,1.233,1.233,0,0,0,.569-.137l2.026-1.161a1.087,1.087,0,0,0,.4-.421,1.228,1.228,0,0,0,.171-.558v-19.747a1.023,1.023,0,0,0-.182-.569l-3.164,1.81a1.231,1.231,0,0,1,.171.569v19.77C1094.279,2498.217,1094.04,2498.4,1093.71,2498.206Z" transform="translate(-183.729 -1745.962)" opacity="0.2"/>
    <path id="Path_36719" data-name="Path 36719" d="M1094.21,2482.93l4.814,6.01a.51.51,0,0,1,.148.25.608.608,0,0,1-.023.285.484.484,0,0,1-.171.228.43.43,0,0,1-.273.1l-4.5.489Z" transform="translate(-183.659 -1744.97)" fill="#fcbf02"/>
    <path id="Path_36720" data-name="Path 36720" d="M1090.459,2481.692c0,.762-.558,1.036-1.229.626l-15.65-9.014a2.721,2.721,0,0,1-.865-.9,2.776,2.776,0,0,1-.376-1.195c0-.774.558-1.036,1.241-.626l15.65,9.026a2.768,2.768,0,0,1,1.229,2.083Z" transform="translate(-186.681 -1746.703)" fill="#fafafa"/>
    <path id="Path_36721" data-name="Path 36721" d="M1093.965,2489.046c0,.763-.558,1.025-1.229.626l-19.155-11.029a2.871,2.871,0,0,1-.865-.911,2.777,2.777,0,0,1-.376-1.2c0-.762.558-1.024,1.241-.626l19.132,11.04a2.651,2.651,0,0,1,.876.9A2.776,2.776,0,0,1,1093.965,2489.046Z" transform="translate(-186.681 -1745.965)" fill="#fafafa"/>
    <path id="Path_36724" data-name="Path 36724" d="M1008.271,2477.09a4.9,4.9,0,0,0-.66-2.185,4.991,4.991,0,0,0-1.571-1.662l-1.823-1.047a4.843,4.843,0,0,0-4.469,0l-35.554,20.5a4.942,4.942,0,0,0-2.234,3.858v21.784a4.941,4.941,0,0,0,2.234,3.858l1.819,1.058a5.03,5.03,0,0,0,4.469,0l15.134-8.809,3.2,5.531a.49.49,0,0,0,.193.182.525.525,0,0,0,.263.057.5.5,0,0,0,.249-.1.461.461,0,0,0,.158-.216l3.375-9.754,12.966-7.409a4.937,4.937,0,0,0,2.242-3.858Z" transform="translate(-201.93 -1746.528)" fill="#fcbf02"/>
    <path id="Path_36725" data-name="Path 36725" d="M961.96,2515.6a4.941,4.941,0,0,0,2.235,3.847l1.818,1.058a5.2,5.2,0,0,0,2.024.523,5.1,5.1,0,0,0,2.061-.353c-1.048.41-1.849-.193-1.849-1.468v-21.773a4.5,4.5,0,0,1,.655-2.2l-6.287-3.642a4.555,4.555,0,0,0-.656,2.208Z" transform="translate(-201.93 -1743.772)" opacity="0.2"/>
    <path id="Path_36726" data-name="Path 36726" d="M1008.1,2476.466c-.273-.956-1.127-1.252-2.162-.66l-35.516,20.521a4.5,4.5,0,0,0-1.541,1.673l-6.28-3.631a4.387,4.387,0,0,1,1.541-1.662l35.539-20.532a4.932,4.932,0,0,1,4.469,0l1.822,1.058a4.786,4.786,0,0,1,1.388,1.4A5.056,5.056,0,0,1,1008.1,2476.466Z" transform="translate(-201.841 -1746.53)" fill="#fff" opacity="0.4"/>
    <path id="Path_36727" data-name="Path 36727" d="M975.822,2498.729a6.632,6.632,0,0,0-2.11,2.231,6.526,6.526,0,0,0-.872,2.936c0,1.9,1.333,2.675,2.982,1.719a6.607,6.607,0,0,0,2.11-2.231,6.512,6.512,0,0,0,.872-2.937C978.8,2498.548,977.487,2497.774,975.822,2498.729Z" transform="translate(-200.427 -1742.844)" fill="#fafafa"/>
    <path id="Path_36728" data-name="Path 36728" d="M985.477,2493.14a6.615,6.615,0,0,0-2.982,5.167c0,1.89,1.341,2.663,2.982,1.719a6.517,6.517,0,0,0,2.123-2.219,6.6,6.6,0,0,0,.882-2.948C988.482,2492.958,987.126,2492.184,985.477,2493.14Z" transform="translate(-199.093 -1743.617)" fill="#fafafa"/>
    <path id="Path_36729" data-name="Path 36729" d="M995.138,2487.549a6.615,6.615,0,0,0-2.982,5.167c0,1.9,1.333,2.675,2.982,1.73a6.623,6.623,0,0,0,2.982-5.167C998.12,2487.378,996.786,2486.6,995.138,2487.549Z" transform="translate(-197.758 -1744.388)" fill="#fafafa"/>
    <path id="Path_36718" data-name="Path 36718" d="M1098.921,2489.94l3.084-1.752a.771.771,0,0,0,.171-.159.558.558,0,0,0,.08-.216.571.571,0,0,0-.023-.239.667.667,0,0,0-.114-.194l-4.814-6.009-3.084,1.764,4.8,6.01a.459.459,0,0,1,.114.2.473.473,0,0,1,.023.217.5.5,0,0,1-.08.216A.358.358,0,0,1,1098.921,2489.94Z" transform="translate(-183.658 -1745.186)" fill="#fff" opacity="0.4"/>
  </g>
</svg>
